%TF.GenerationSoftware,KiCad,Pcbnew,10.0.1*%
%TF.CreationDate,2026-05-04T20:20:41+08:00*%
%TF.ProjectId,GETOU_,4745544f-555f-42e6-9b69-6361645f7063,rev?*%
%TF.SameCoordinates,Original*%
%TF.FileFunction,Soldermask,Bot*%
%TF.FilePolarity,Negative*%
%FSLAX46Y46*%
G04 Gerber Fmt 4.6, Leading zero omitted, Abs format (unit mm)*
G04 Created by KiCad (PCBNEW 10.0.1) date 2026-05-04 20:20:41*
%MOMM*%
%LPD*%
G01*
G04 APERTURE LIST*
G04 Aperture macros list*
%AMRoundRect*
0 Rectangle with rounded corners*
0 $1 Rounding radius*
0 $2 $3 $4 $5 $6 $7 $8 $9 X,Y pos of 4 corners*
0 Add a 4 corners polygon primitive as box body*
4,1,4,$2,$3,$4,$5,$6,$7,$8,$9,$2,$3,0*
0 Add four circle primitives for the rounded corners*
1,1,$1+$1,$2,$3*
1,1,$1+$1,$4,$5*
1,1,$1+$1,$6,$7*
1,1,$1+$1,$8,$9*
0 Add four rect primitives between the rounded corners*
20,1,$1+$1,$2,$3,$4,$5,0*
20,1,$1+$1,$4,$5,$6,$7,0*
20,1,$1+$1,$6,$7,$8,$9,0*
20,1,$1+$1,$8,$9,$2,$3,0*%
G04 Aperture macros list end*
%ADD10RoundRect,0.250000X-0.550000X-0.550000X0.550000X-0.550000X0.550000X0.550000X-0.550000X0.550000X0*%
%ADD11C,1.600000*%
%ADD12C,4.089400*%
%ADD13C,2.528100*%
%ADD14C,1.524000*%
G04 APERTURE END LIST*
D10*
%TO.C,D2*%
X98190000Y-71000000D03*
D11*
X105810000Y-71000000D03*
%TD*%
D10*
%TO.C,D10*%
X98000000Y-107000000D03*
D11*
X105620000Y-107000000D03*
%TD*%
D10*
%TO.C,D6*%
X98000000Y-89100000D03*
D11*
X105620000Y-89100000D03*
%TD*%
D12*
%TO.C,S1*%
X121000000Y-72036000D03*
D13*
X117190000Y-69496000D03*
X123540000Y-66956000D03*
%TD*%
D10*
%TO.C,D12*%
X98000000Y-116000000D03*
D11*
X105620000Y-116000000D03*
%TD*%
D10*
%TO.C,D11*%
X98000000Y-111500000D03*
D11*
X105620000Y-111500000D03*
%TD*%
D12*
%TO.C,S4*%
X139310000Y-72036000D03*
D13*
X135500000Y-69496000D03*
X141850000Y-66956000D03*
%TD*%
D12*
%TO.C,S8*%
X158000000Y-91500000D03*
D13*
X154190000Y-88960000D03*
X160540000Y-86420000D03*
%TD*%
D10*
%TO.C,D8*%
X98000000Y-98100000D03*
D11*
X105620000Y-98100000D03*
%TD*%
D10*
%TO.C,D1*%
X98190000Y-66900000D03*
D11*
X105810000Y-66900000D03*
%TD*%
D10*
%TO.C,D9*%
X98000000Y-102450000D03*
D11*
X105620000Y-102450000D03*
%TD*%
D12*
%TO.C,S7*%
X158000000Y-72000000D03*
D13*
X154190000Y-69460000D03*
X160540000Y-66920000D03*
%TD*%
D12*
%TO.C,S3*%
X121000000Y-110000000D03*
D13*
X117190000Y-107460000D03*
X123540000Y-104920000D03*
%TD*%
D12*
%TO.C,S2*%
X121000000Y-91500000D03*
D13*
X117190000Y-88960000D03*
X123540000Y-86420000D03*
%TD*%
D12*
%TO.C,S12*%
X177810000Y-110000000D03*
D13*
X174000000Y-107460000D03*
X180350000Y-104920000D03*
%TD*%
D10*
%TO.C,D4*%
X98190000Y-80100000D03*
D11*
X105810000Y-80100000D03*
%TD*%
D12*
%TO.C,S10*%
X177810000Y-71996000D03*
D13*
X174000000Y-69456000D03*
X180350000Y-66916000D03*
%TD*%
D10*
%TO.C,D7*%
X98000000Y-93600000D03*
D11*
X105620000Y-93600000D03*
%TD*%
D10*
%TO.C,D5*%
X98000000Y-84600000D03*
D11*
X105620000Y-84600000D03*
%TD*%
D12*
%TO.C,S6*%
X139310000Y-110000000D03*
D13*
X135500000Y-107460000D03*
X141850000Y-104920000D03*
%TD*%
D14*
%TO.C,U1*%
X207851500Y-82880000D03*
X205311500Y-82880000D03*
X202771500Y-82880000D03*
X200231500Y-82880000D03*
X197691500Y-82880000D03*
X195151500Y-82880000D03*
X192611500Y-82880000D03*
X192611500Y-98120000D03*
X195151500Y-98120000D03*
X197691500Y-98120000D03*
X200231500Y-98120000D03*
X202771500Y-98120000D03*
X205311500Y-98120000D03*
X207851500Y-98120000D03*
%TD*%
D10*
%TO.C,D3*%
X98190000Y-75550000D03*
D11*
X105810000Y-75550000D03*
%TD*%
D12*
%TO.C,S5*%
X139310000Y-91500000D03*
D13*
X135500000Y-88960000D03*
X141850000Y-86420000D03*
%TD*%
D12*
%TO.C,S11*%
X177810000Y-91000000D03*
D13*
X174000000Y-88460000D03*
X180350000Y-85920000D03*
%TD*%
D12*
%TO.C,S9*%
X158000000Y-110000000D03*
D13*
X154190000Y-107460000D03*
X160540000Y-104920000D03*
%TD*%
M02*
