%TF.GenerationSoftware,KiCad,Pcbnew,10.0.1*%
%TF.CreationDate,2026-05-04T20:20:41+08:00*%
%TF.ProjectId,GETOU_,4745544f-555f-42e6-9b69-6361645f7063,rev?*%
%TF.SameCoordinates,Original*%
%TF.FileFunction,Legend,Top*%
%TF.FilePolarity,Positive*%
%FSLAX46Y46*%
G04 Gerber Fmt 4.6, Leading zero omitted, Abs format (unit mm)*
G04 Created by KiCad (PCBNEW 10.0.1) date 2026-05-04 20:20:41*
%MOMM*%
%LPD*%
G01*
G04 APERTURE LIST*
%ADD10C,0.150000*%
%ADD11C,0.101600*%
%ADD12C,0.120000*%
%ADD13C,0.127000*%
%ADD14C,0.100000*%
%ADD15C,0.504000*%
G04 APERTURE END LIST*
D10*
X101261905Y-69334819D02*
X101261905Y-68334819D01*
X101261905Y-68334819D02*
X101500000Y-68334819D01*
X101500000Y-68334819D02*
X101642857Y-68382438D01*
X101642857Y-68382438D02*
X101738095Y-68477676D01*
X101738095Y-68477676D02*
X101785714Y-68572914D01*
X101785714Y-68572914D02*
X101833333Y-68763390D01*
X101833333Y-68763390D02*
X101833333Y-68906247D01*
X101833333Y-68906247D02*
X101785714Y-69096723D01*
X101785714Y-69096723D02*
X101738095Y-69191961D01*
X101738095Y-69191961D02*
X101642857Y-69287200D01*
X101642857Y-69287200D02*
X101500000Y-69334819D01*
X101500000Y-69334819D02*
X101261905Y-69334819D01*
X102214286Y-68430057D02*
X102261905Y-68382438D01*
X102261905Y-68382438D02*
X102357143Y-68334819D01*
X102357143Y-68334819D02*
X102595238Y-68334819D01*
X102595238Y-68334819D02*
X102690476Y-68382438D01*
X102690476Y-68382438D02*
X102738095Y-68430057D01*
X102738095Y-68430057D02*
X102785714Y-68525295D01*
X102785714Y-68525295D02*
X102785714Y-68620533D01*
X102785714Y-68620533D02*
X102738095Y-68763390D01*
X102738095Y-68763390D02*
X102166667Y-69334819D01*
X102166667Y-69334819D02*
X102785714Y-69334819D01*
X97928095Y-69654819D02*
X97928095Y-68654819D01*
X98499523Y-69654819D02*
X98070952Y-69083390D01*
X98499523Y-68654819D02*
X97928095Y-69226247D01*
X100595714Y-105334819D02*
X100595714Y-104334819D01*
X100595714Y-104334819D02*
X100833809Y-104334819D01*
X100833809Y-104334819D02*
X100976666Y-104382438D01*
X100976666Y-104382438D02*
X101071904Y-104477676D01*
X101071904Y-104477676D02*
X101119523Y-104572914D01*
X101119523Y-104572914D02*
X101167142Y-104763390D01*
X101167142Y-104763390D02*
X101167142Y-104906247D01*
X101167142Y-104906247D02*
X101119523Y-105096723D01*
X101119523Y-105096723D02*
X101071904Y-105191961D01*
X101071904Y-105191961D02*
X100976666Y-105287200D01*
X100976666Y-105287200D02*
X100833809Y-105334819D01*
X100833809Y-105334819D02*
X100595714Y-105334819D01*
X102119523Y-105334819D02*
X101548095Y-105334819D01*
X101833809Y-105334819D02*
X101833809Y-104334819D01*
X101833809Y-104334819D02*
X101738571Y-104477676D01*
X101738571Y-104477676D02*
X101643333Y-104572914D01*
X101643333Y-104572914D02*
X101548095Y-104620533D01*
X102738571Y-104334819D02*
X102833809Y-104334819D01*
X102833809Y-104334819D02*
X102929047Y-104382438D01*
X102929047Y-104382438D02*
X102976666Y-104430057D01*
X102976666Y-104430057D02*
X103024285Y-104525295D01*
X103024285Y-104525295D02*
X103071904Y-104715771D01*
X103071904Y-104715771D02*
X103071904Y-104953866D01*
X103071904Y-104953866D02*
X103024285Y-105144342D01*
X103024285Y-105144342D02*
X102976666Y-105239580D01*
X102976666Y-105239580D02*
X102929047Y-105287200D01*
X102929047Y-105287200D02*
X102833809Y-105334819D01*
X102833809Y-105334819D02*
X102738571Y-105334819D01*
X102738571Y-105334819D02*
X102643333Y-105287200D01*
X102643333Y-105287200D02*
X102595714Y-105239580D01*
X102595714Y-105239580D02*
X102548095Y-105144342D01*
X102548095Y-105144342D02*
X102500476Y-104953866D01*
X102500476Y-104953866D02*
X102500476Y-104715771D01*
X102500476Y-104715771D02*
X102548095Y-104525295D01*
X102548095Y-104525295D02*
X102595714Y-104430057D01*
X102595714Y-104430057D02*
X102643333Y-104382438D01*
X102643333Y-104382438D02*
X102738571Y-104334819D01*
X97738095Y-105654819D02*
X97738095Y-104654819D01*
X98309523Y-105654819D02*
X97880952Y-105083390D01*
X98309523Y-104654819D02*
X97738095Y-105226247D01*
X101071905Y-87434819D02*
X101071905Y-86434819D01*
X101071905Y-86434819D02*
X101310000Y-86434819D01*
X101310000Y-86434819D02*
X101452857Y-86482438D01*
X101452857Y-86482438D02*
X101548095Y-86577676D01*
X101548095Y-86577676D02*
X101595714Y-86672914D01*
X101595714Y-86672914D02*
X101643333Y-86863390D01*
X101643333Y-86863390D02*
X101643333Y-87006247D01*
X101643333Y-87006247D02*
X101595714Y-87196723D01*
X101595714Y-87196723D02*
X101548095Y-87291961D01*
X101548095Y-87291961D02*
X101452857Y-87387200D01*
X101452857Y-87387200D02*
X101310000Y-87434819D01*
X101310000Y-87434819D02*
X101071905Y-87434819D01*
X102500476Y-86434819D02*
X102310000Y-86434819D01*
X102310000Y-86434819D02*
X102214762Y-86482438D01*
X102214762Y-86482438D02*
X102167143Y-86530057D01*
X102167143Y-86530057D02*
X102071905Y-86672914D01*
X102071905Y-86672914D02*
X102024286Y-86863390D01*
X102024286Y-86863390D02*
X102024286Y-87244342D01*
X102024286Y-87244342D02*
X102071905Y-87339580D01*
X102071905Y-87339580D02*
X102119524Y-87387200D01*
X102119524Y-87387200D02*
X102214762Y-87434819D01*
X102214762Y-87434819D02*
X102405238Y-87434819D01*
X102405238Y-87434819D02*
X102500476Y-87387200D01*
X102500476Y-87387200D02*
X102548095Y-87339580D01*
X102548095Y-87339580D02*
X102595714Y-87244342D01*
X102595714Y-87244342D02*
X102595714Y-87006247D01*
X102595714Y-87006247D02*
X102548095Y-86911009D01*
X102548095Y-86911009D02*
X102500476Y-86863390D01*
X102500476Y-86863390D02*
X102405238Y-86815771D01*
X102405238Y-86815771D02*
X102214762Y-86815771D01*
X102214762Y-86815771D02*
X102119524Y-86863390D01*
X102119524Y-86863390D02*
X102071905Y-86911009D01*
X102071905Y-86911009D02*
X102024286Y-87006247D01*
X97738095Y-87754819D02*
X97738095Y-86754819D01*
X98309523Y-87754819D02*
X97880952Y-87183390D01*
X98309523Y-86754819D02*
X97738095Y-87326247D01*
X115416095Y-62811200D02*
X115558952Y-62858819D01*
X115558952Y-62858819D02*
X115797047Y-62858819D01*
X115797047Y-62858819D02*
X115892285Y-62811200D01*
X115892285Y-62811200D02*
X115939904Y-62763580D01*
X115939904Y-62763580D02*
X115987523Y-62668342D01*
X115987523Y-62668342D02*
X115987523Y-62573104D01*
X115987523Y-62573104D02*
X115939904Y-62477866D01*
X115939904Y-62477866D02*
X115892285Y-62430247D01*
X115892285Y-62430247D02*
X115797047Y-62382628D01*
X115797047Y-62382628D02*
X115606571Y-62335009D01*
X115606571Y-62335009D02*
X115511333Y-62287390D01*
X115511333Y-62287390D02*
X115463714Y-62239771D01*
X115463714Y-62239771D02*
X115416095Y-62144533D01*
X115416095Y-62144533D02*
X115416095Y-62049295D01*
X115416095Y-62049295D02*
X115463714Y-61954057D01*
X115463714Y-61954057D02*
X115511333Y-61906438D01*
X115511333Y-61906438D02*
X115606571Y-61858819D01*
X115606571Y-61858819D02*
X115844666Y-61858819D01*
X115844666Y-61858819D02*
X115987523Y-61906438D01*
X116939904Y-62858819D02*
X116368476Y-62858819D01*
X116654190Y-62858819D02*
X116654190Y-61858819D01*
X116654190Y-61858819D02*
X116558952Y-62001676D01*
X116558952Y-62001676D02*
X116463714Y-62096914D01*
X116463714Y-62096914D02*
X116368476Y-62144533D01*
X100595714Y-114334819D02*
X100595714Y-113334819D01*
X100595714Y-113334819D02*
X100833809Y-113334819D01*
X100833809Y-113334819D02*
X100976666Y-113382438D01*
X100976666Y-113382438D02*
X101071904Y-113477676D01*
X101071904Y-113477676D02*
X101119523Y-113572914D01*
X101119523Y-113572914D02*
X101167142Y-113763390D01*
X101167142Y-113763390D02*
X101167142Y-113906247D01*
X101167142Y-113906247D02*
X101119523Y-114096723D01*
X101119523Y-114096723D02*
X101071904Y-114191961D01*
X101071904Y-114191961D02*
X100976666Y-114287200D01*
X100976666Y-114287200D02*
X100833809Y-114334819D01*
X100833809Y-114334819D02*
X100595714Y-114334819D01*
X102119523Y-114334819D02*
X101548095Y-114334819D01*
X101833809Y-114334819D02*
X101833809Y-113334819D01*
X101833809Y-113334819D02*
X101738571Y-113477676D01*
X101738571Y-113477676D02*
X101643333Y-113572914D01*
X101643333Y-113572914D02*
X101548095Y-113620533D01*
X102500476Y-113430057D02*
X102548095Y-113382438D01*
X102548095Y-113382438D02*
X102643333Y-113334819D01*
X102643333Y-113334819D02*
X102881428Y-113334819D01*
X102881428Y-113334819D02*
X102976666Y-113382438D01*
X102976666Y-113382438D02*
X103024285Y-113430057D01*
X103024285Y-113430057D02*
X103071904Y-113525295D01*
X103071904Y-113525295D02*
X103071904Y-113620533D01*
X103071904Y-113620533D02*
X103024285Y-113763390D01*
X103024285Y-113763390D02*
X102452857Y-114334819D01*
X102452857Y-114334819D02*
X103071904Y-114334819D01*
X97738095Y-114654819D02*
X97738095Y-113654819D01*
X98309523Y-114654819D02*
X97880952Y-114083390D01*
X98309523Y-113654819D02*
X97738095Y-114226247D01*
X100595714Y-109834819D02*
X100595714Y-108834819D01*
X100595714Y-108834819D02*
X100833809Y-108834819D01*
X100833809Y-108834819D02*
X100976666Y-108882438D01*
X100976666Y-108882438D02*
X101071904Y-108977676D01*
X101071904Y-108977676D02*
X101119523Y-109072914D01*
X101119523Y-109072914D02*
X101167142Y-109263390D01*
X101167142Y-109263390D02*
X101167142Y-109406247D01*
X101167142Y-109406247D02*
X101119523Y-109596723D01*
X101119523Y-109596723D02*
X101071904Y-109691961D01*
X101071904Y-109691961D02*
X100976666Y-109787200D01*
X100976666Y-109787200D02*
X100833809Y-109834819D01*
X100833809Y-109834819D02*
X100595714Y-109834819D01*
X102119523Y-109834819D02*
X101548095Y-109834819D01*
X101833809Y-109834819D02*
X101833809Y-108834819D01*
X101833809Y-108834819D02*
X101738571Y-108977676D01*
X101738571Y-108977676D02*
X101643333Y-109072914D01*
X101643333Y-109072914D02*
X101548095Y-109120533D01*
X103071904Y-109834819D02*
X102500476Y-109834819D01*
X102786190Y-109834819D02*
X102786190Y-108834819D01*
X102786190Y-108834819D02*
X102690952Y-108977676D01*
X102690952Y-108977676D02*
X102595714Y-109072914D01*
X102595714Y-109072914D02*
X102500476Y-109120533D01*
X97738095Y-110154819D02*
X97738095Y-109154819D01*
X98309523Y-110154819D02*
X97880952Y-109583390D01*
X98309523Y-109154819D02*
X97738095Y-109726247D01*
X133726095Y-62811200D02*
X133868952Y-62858819D01*
X133868952Y-62858819D02*
X134107047Y-62858819D01*
X134107047Y-62858819D02*
X134202285Y-62811200D01*
X134202285Y-62811200D02*
X134249904Y-62763580D01*
X134249904Y-62763580D02*
X134297523Y-62668342D01*
X134297523Y-62668342D02*
X134297523Y-62573104D01*
X134297523Y-62573104D02*
X134249904Y-62477866D01*
X134249904Y-62477866D02*
X134202285Y-62430247D01*
X134202285Y-62430247D02*
X134107047Y-62382628D01*
X134107047Y-62382628D02*
X133916571Y-62335009D01*
X133916571Y-62335009D02*
X133821333Y-62287390D01*
X133821333Y-62287390D02*
X133773714Y-62239771D01*
X133773714Y-62239771D02*
X133726095Y-62144533D01*
X133726095Y-62144533D02*
X133726095Y-62049295D01*
X133726095Y-62049295D02*
X133773714Y-61954057D01*
X133773714Y-61954057D02*
X133821333Y-61906438D01*
X133821333Y-61906438D02*
X133916571Y-61858819D01*
X133916571Y-61858819D02*
X134154666Y-61858819D01*
X134154666Y-61858819D02*
X134297523Y-61906438D01*
X135154666Y-62192152D02*
X135154666Y-62858819D01*
X134916571Y-61811200D02*
X134678476Y-62525485D01*
X134678476Y-62525485D02*
X135297523Y-62525485D01*
X152416095Y-82275200D02*
X152558952Y-82322819D01*
X152558952Y-82322819D02*
X152797047Y-82322819D01*
X152797047Y-82322819D02*
X152892285Y-82275200D01*
X152892285Y-82275200D02*
X152939904Y-82227580D01*
X152939904Y-82227580D02*
X152987523Y-82132342D01*
X152987523Y-82132342D02*
X152987523Y-82037104D01*
X152987523Y-82037104D02*
X152939904Y-81941866D01*
X152939904Y-81941866D02*
X152892285Y-81894247D01*
X152892285Y-81894247D02*
X152797047Y-81846628D01*
X152797047Y-81846628D02*
X152606571Y-81799009D01*
X152606571Y-81799009D02*
X152511333Y-81751390D01*
X152511333Y-81751390D02*
X152463714Y-81703771D01*
X152463714Y-81703771D02*
X152416095Y-81608533D01*
X152416095Y-81608533D02*
X152416095Y-81513295D01*
X152416095Y-81513295D02*
X152463714Y-81418057D01*
X152463714Y-81418057D02*
X152511333Y-81370438D01*
X152511333Y-81370438D02*
X152606571Y-81322819D01*
X152606571Y-81322819D02*
X152844666Y-81322819D01*
X152844666Y-81322819D02*
X152987523Y-81370438D01*
X153558952Y-81751390D02*
X153463714Y-81703771D01*
X153463714Y-81703771D02*
X153416095Y-81656152D01*
X153416095Y-81656152D02*
X153368476Y-81560914D01*
X153368476Y-81560914D02*
X153368476Y-81513295D01*
X153368476Y-81513295D02*
X153416095Y-81418057D01*
X153416095Y-81418057D02*
X153463714Y-81370438D01*
X153463714Y-81370438D02*
X153558952Y-81322819D01*
X153558952Y-81322819D02*
X153749428Y-81322819D01*
X153749428Y-81322819D02*
X153844666Y-81370438D01*
X153844666Y-81370438D02*
X153892285Y-81418057D01*
X153892285Y-81418057D02*
X153939904Y-81513295D01*
X153939904Y-81513295D02*
X153939904Y-81560914D01*
X153939904Y-81560914D02*
X153892285Y-81656152D01*
X153892285Y-81656152D02*
X153844666Y-81703771D01*
X153844666Y-81703771D02*
X153749428Y-81751390D01*
X153749428Y-81751390D02*
X153558952Y-81751390D01*
X153558952Y-81751390D02*
X153463714Y-81799009D01*
X153463714Y-81799009D02*
X153416095Y-81846628D01*
X153416095Y-81846628D02*
X153368476Y-81941866D01*
X153368476Y-81941866D02*
X153368476Y-82132342D01*
X153368476Y-82132342D02*
X153416095Y-82227580D01*
X153416095Y-82227580D02*
X153463714Y-82275200D01*
X153463714Y-82275200D02*
X153558952Y-82322819D01*
X153558952Y-82322819D02*
X153749428Y-82322819D01*
X153749428Y-82322819D02*
X153844666Y-82275200D01*
X153844666Y-82275200D02*
X153892285Y-82227580D01*
X153892285Y-82227580D02*
X153939904Y-82132342D01*
X153939904Y-82132342D02*
X153939904Y-81941866D01*
X153939904Y-81941866D02*
X153892285Y-81846628D01*
X153892285Y-81846628D02*
X153844666Y-81799009D01*
X153844666Y-81799009D02*
X153749428Y-81751390D01*
X101071905Y-96434819D02*
X101071905Y-95434819D01*
X101071905Y-95434819D02*
X101310000Y-95434819D01*
X101310000Y-95434819D02*
X101452857Y-95482438D01*
X101452857Y-95482438D02*
X101548095Y-95577676D01*
X101548095Y-95577676D02*
X101595714Y-95672914D01*
X101595714Y-95672914D02*
X101643333Y-95863390D01*
X101643333Y-95863390D02*
X101643333Y-96006247D01*
X101643333Y-96006247D02*
X101595714Y-96196723D01*
X101595714Y-96196723D02*
X101548095Y-96291961D01*
X101548095Y-96291961D02*
X101452857Y-96387200D01*
X101452857Y-96387200D02*
X101310000Y-96434819D01*
X101310000Y-96434819D02*
X101071905Y-96434819D01*
X102214762Y-95863390D02*
X102119524Y-95815771D01*
X102119524Y-95815771D02*
X102071905Y-95768152D01*
X102071905Y-95768152D02*
X102024286Y-95672914D01*
X102024286Y-95672914D02*
X102024286Y-95625295D01*
X102024286Y-95625295D02*
X102071905Y-95530057D01*
X102071905Y-95530057D02*
X102119524Y-95482438D01*
X102119524Y-95482438D02*
X102214762Y-95434819D01*
X102214762Y-95434819D02*
X102405238Y-95434819D01*
X102405238Y-95434819D02*
X102500476Y-95482438D01*
X102500476Y-95482438D02*
X102548095Y-95530057D01*
X102548095Y-95530057D02*
X102595714Y-95625295D01*
X102595714Y-95625295D02*
X102595714Y-95672914D01*
X102595714Y-95672914D02*
X102548095Y-95768152D01*
X102548095Y-95768152D02*
X102500476Y-95815771D01*
X102500476Y-95815771D02*
X102405238Y-95863390D01*
X102405238Y-95863390D02*
X102214762Y-95863390D01*
X102214762Y-95863390D02*
X102119524Y-95911009D01*
X102119524Y-95911009D02*
X102071905Y-95958628D01*
X102071905Y-95958628D02*
X102024286Y-96053866D01*
X102024286Y-96053866D02*
X102024286Y-96244342D01*
X102024286Y-96244342D02*
X102071905Y-96339580D01*
X102071905Y-96339580D02*
X102119524Y-96387200D01*
X102119524Y-96387200D02*
X102214762Y-96434819D01*
X102214762Y-96434819D02*
X102405238Y-96434819D01*
X102405238Y-96434819D02*
X102500476Y-96387200D01*
X102500476Y-96387200D02*
X102548095Y-96339580D01*
X102548095Y-96339580D02*
X102595714Y-96244342D01*
X102595714Y-96244342D02*
X102595714Y-96053866D01*
X102595714Y-96053866D02*
X102548095Y-95958628D01*
X102548095Y-95958628D02*
X102500476Y-95911009D01*
X102500476Y-95911009D02*
X102405238Y-95863390D01*
X97738095Y-96754819D02*
X97738095Y-95754819D01*
X98309523Y-96754819D02*
X97880952Y-96183390D01*
X98309523Y-95754819D02*
X97738095Y-96326247D01*
X101261905Y-65234819D02*
X101261905Y-64234819D01*
X101261905Y-64234819D02*
X101500000Y-64234819D01*
X101500000Y-64234819D02*
X101642857Y-64282438D01*
X101642857Y-64282438D02*
X101738095Y-64377676D01*
X101738095Y-64377676D02*
X101785714Y-64472914D01*
X101785714Y-64472914D02*
X101833333Y-64663390D01*
X101833333Y-64663390D02*
X101833333Y-64806247D01*
X101833333Y-64806247D02*
X101785714Y-64996723D01*
X101785714Y-64996723D02*
X101738095Y-65091961D01*
X101738095Y-65091961D02*
X101642857Y-65187200D01*
X101642857Y-65187200D02*
X101500000Y-65234819D01*
X101500000Y-65234819D02*
X101261905Y-65234819D01*
X102785714Y-65234819D02*
X102214286Y-65234819D01*
X102500000Y-65234819D02*
X102500000Y-64234819D01*
X102500000Y-64234819D02*
X102404762Y-64377676D01*
X102404762Y-64377676D02*
X102309524Y-64472914D01*
X102309524Y-64472914D02*
X102214286Y-64520533D01*
X97928095Y-65554819D02*
X97928095Y-64554819D01*
X98499523Y-65554819D02*
X98070952Y-64983390D01*
X98499523Y-64554819D02*
X97928095Y-65126247D01*
X101071905Y-100784819D02*
X101071905Y-99784819D01*
X101071905Y-99784819D02*
X101310000Y-99784819D01*
X101310000Y-99784819D02*
X101452857Y-99832438D01*
X101452857Y-99832438D02*
X101548095Y-99927676D01*
X101548095Y-99927676D02*
X101595714Y-100022914D01*
X101595714Y-100022914D02*
X101643333Y-100213390D01*
X101643333Y-100213390D02*
X101643333Y-100356247D01*
X101643333Y-100356247D02*
X101595714Y-100546723D01*
X101595714Y-100546723D02*
X101548095Y-100641961D01*
X101548095Y-100641961D02*
X101452857Y-100737200D01*
X101452857Y-100737200D02*
X101310000Y-100784819D01*
X101310000Y-100784819D02*
X101071905Y-100784819D01*
X102119524Y-100784819D02*
X102310000Y-100784819D01*
X102310000Y-100784819D02*
X102405238Y-100737200D01*
X102405238Y-100737200D02*
X102452857Y-100689580D01*
X102452857Y-100689580D02*
X102548095Y-100546723D01*
X102548095Y-100546723D02*
X102595714Y-100356247D01*
X102595714Y-100356247D02*
X102595714Y-99975295D01*
X102595714Y-99975295D02*
X102548095Y-99880057D01*
X102548095Y-99880057D02*
X102500476Y-99832438D01*
X102500476Y-99832438D02*
X102405238Y-99784819D01*
X102405238Y-99784819D02*
X102214762Y-99784819D01*
X102214762Y-99784819D02*
X102119524Y-99832438D01*
X102119524Y-99832438D02*
X102071905Y-99880057D01*
X102071905Y-99880057D02*
X102024286Y-99975295D01*
X102024286Y-99975295D02*
X102024286Y-100213390D01*
X102024286Y-100213390D02*
X102071905Y-100308628D01*
X102071905Y-100308628D02*
X102119524Y-100356247D01*
X102119524Y-100356247D02*
X102214762Y-100403866D01*
X102214762Y-100403866D02*
X102405238Y-100403866D01*
X102405238Y-100403866D02*
X102500476Y-100356247D01*
X102500476Y-100356247D02*
X102548095Y-100308628D01*
X102548095Y-100308628D02*
X102595714Y-100213390D01*
X97738095Y-101104819D02*
X97738095Y-100104819D01*
X98309523Y-101104819D02*
X97880952Y-100533390D01*
X98309523Y-100104819D02*
X97738095Y-100676247D01*
X152416095Y-62775200D02*
X152558952Y-62822819D01*
X152558952Y-62822819D02*
X152797047Y-62822819D01*
X152797047Y-62822819D02*
X152892285Y-62775200D01*
X152892285Y-62775200D02*
X152939904Y-62727580D01*
X152939904Y-62727580D02*
X152987523Y-62632342D01*
X152987523Y-62632342D02*
X152987523Y-62537104D01*
X152987523Y-62537104D02*
X152939904Y-62441866D01*
X152939904Y-62441866D02*
X152892285Y-62394247D01*
X152892285Y-62394247D02*
X152797047Y-62346628D01*
X152797047Y-62346628D02*
X152606571Y-62299009D01*
X152606571Y-62299009D02*
X152511333Y-62251390D01*
X152511333Y-62251390D02*
X152463714Y-62203771D01*
X152463714Y-62203771D02*
X152416095Y-62108533D01*
X152416095Y-62108533D02*
X152416095Y-62013295D01*
X152416095Y-62013295D02*
X152463714Y-61918057D01*
X152463714Y-61918057D02*
X152511333Y-61870438D01*
X152511333Y-61870438D02*
X152606571Y-61822819D01*
X152606571Y-61822819D02*
X152844666Y-61822819D01*
X152844666Y-61822819D02*
X152987523Y-61870438D01*
X153320857Y-61822819D02*
X153987523Y-61822819D01*
X153987523Y-61822819D02*
X153558952Y-62822819D01*
X115416095Y-100775200D02*
X115558952Y-100822819D01*
X115558952Y-100822819D02*
X115797047Y-100822819D01*
X115797047Y-100822819D02*
X115892285Y-100775200D01*
X115892285Y-100775200D02*
X115939904Y-100727580D01*
X115939904Y-100727580D02*
X115987523Y-100632342D01*
X115987523Y-100632342D02*
X115987523Y-100537104D01*
X115987523Y-100537104D02*
X115939904Y-100441866D01*
X115939904Y-100441866D02*
X115892285Y-100394247D01*
X115892285Y-100394247D02*
X115797047Y-100346628D01*
X115797047Y-100346628D02*
X115606571Y-100299009D01*
X115606571Y-100299009D02*
X115511333Y-100251390D01*
X115511333Y-100251390D02*
X115463714Y-100203771D01*
X115463714Y-100203771D02*
X115416095Y-100108533D01*
X115416095Y-100108533D02*
X115416095Y-100013295D01*
X115416095Y-100013295D02*
X115463714Y-99918057D01*
X115463714Y-99918057D02*
X115511333Y-99870438D01*
X115511333Y-99870438D02*
X115606571Y-99822819D01*
X115606571Y-99822819D02*
X115844666Y-99822819D01*
X115844666Y-99822819D02*
X115987523Y-99870438D01*
X116320857Y-99822819D02*
X116939904Y-99822819D01*
X116939904Y-99822819D02*
X116606571Y-100203771D01*
X116606571Y-100203771D02*
X116749428Y-100203771D01*
X116749428Y-100203771D02*
X116844666Y-100251390D01*
X116844666Y-100251390D02*
X116892285Y-100299009D01*
X116892285Y-100299009D02*
X116939904Y-100394247D01*
X116939904Y-100394247D02*
X116939904Y-100632342D01*
X116939904Y-100632342D02*
X116892285Y-100727580D01*
X116892285Y-100727580D02*
X116844666Y-100775200D01*
X116844666Y-100775200D02*
X116749428Y-100822819D01*
X116749428Y-100822819D02*
X116463714Y-100822819D01*
X116463714Y-100822819D02*
X116368476Y-100775200D01*
X116368476Y-100775200D02*
X116320857Y-100727580D01*
X115416095Y-82275200D02*
X115558952Y-82322819D01*
X115558952Y-82322819D02*
X115797047Y-82322819D01*
X115797047Y-82322819D02*
X115892285Y-82275200D01*
X115892285Y-82275200D02*
X115939904Y-82227580D01*
X115939904Y-82227580D02*
X115987523Y-82132342D01*
X115987523Y-82132342D02*
X115987523Y-82037104D01*
X115987523Y-82037104D02*
X115939904Y-81941866D01*
X115939904Y-81941866D02*
X115892285Y-81894247D01*
X115892285Y-81894247D02*
X115797047Y-81846628D01*
X115797047Y-81846628D02*
X115606571Y-81799009D01*
X115606571Y-81799009D02*
X115511333Y-81751390D01*
X115511333Y-81751390D02*
X115463714Y-81703771D01*
X115463714Y-81703771D02*
X115416095Y-81608533D01*
X115416095Y-81608533D02*
X115416095Y-81513295D01*
X115416095Y-81513295D02*
X115463714Y-81418057D01*
X115463714Y-81418057D02*
X115511333Y-81370438D01*
X115511333Y-81370438D02*
X115606571Y-81322819D01*
X115606571Y-81322819D02*
X115844666Y-81322819D01*
X115844666Y-81322819D02*
X115987523Y-81370438D01*
X116368476Y-81418057D02*
X116416095Y-81370438D01*
X116416095Y-81370438D02*
X116511333Y-81322819D01*
X116511333Y-81322819D02*
X116749428Y-81322819D01*
X116749428Y-81322819D02*
X116844666Y-81370438D01*
X116844666Y-81370438D02*
X116892285Y-81418057D01*
X116892285Y-81418057D02*
X116939904Y-81513295D01*
X116939904Y-81513295D02*
X116939904Y-81608533D01*
X116939904Y-81608533D02*
X116892285Y-81751390D01*
X116892285Y-81751390D02*
X116320857Y-82322819D01*
X116320857Y-82322819D02*
X116939904Y-82322819D01*
X171749905Y-100775200D02*
X171892762Y-100822819D01*
X171892762Y-100822819D02*
X172130857Y-100822819D01*
X172130857Y-100822819D02*
X172226095Y-100775200D01*
X172226095Y-100775200D02*
X172273714Y-100727580D01*
X172273714Y-100727580D02*
X172321333Y-100632342D01*
X172321333Y-100632342D02*
X172321333Y-100537104D01*
X172321333Y-100537104D02*
X172273714Y-100441866D01*
X172273714Y-100441866D02*
X172226095Y-100394247D01*
X172226095Y-100394247D02*
X172130857Y-100346628D01*
X172130857Y-100346628D02*
X171940381Y-100299009D01*
X171940381Y-100299009D02*
X171845143Y-100251390D01*
X171845143Y-100251390D02*
X171797524Y-100203771D01*
X171797524Y-100203771D02*
X171749905Y-100108533D01*
X171749905Y-100108533D02*
X171749905Y-100013295D01*
X171749905Y-100013295D02*
X171797524Y-99918057D01*
X171797524Y-99918057D02*
X171845143Y-99870438D01*
X171845143Y-99870438D02*
X171940381Y-99822819D01*
X171940381Y-99822819D02*
X172178476Y-99822819D01*
X172178476Y-99822819D02*
X172321333Y-99870438D01*
X173273714Y-100822819D02*
X172702286Y-100822819D01*
X172988000Y-100822819D02*
X172988000Y-99822819D01*
X172988000Y-99822819D02*
X172892762Y-99965676D01*
X172892762Y-99965676D02*
X172797524Y-100060914D01*
X172797524Y-100060914D02*
X172702286Y-100108533D01*
X173654667Y-99918057D02*
X173702286Y-99870438D01*
X173702286Y-99870438D02*
X173797524Y-99822819D01*
X173797524Y-99822819D02*
X174035619Y-99822819D01*
X174035619Y-99822819D02*
X174130857Y-99870438D01*
X174130857Y-99870438D02*
X174178476Y-99918057D01*
X174178476Y-99918057D02*
X174226095Y-100013295D01*
X174226095Y-100013295D02*
X174226095Y-100108533D01*
X174226095Y-100108533D02*
X174178476Y-100251390D01*
X174178476Y-100251390D02*
X173607048Y-100822819D01*
X173607048Y-100822819D02*
X174226095Y-100822819D01*
X101261905Y-78434819D02*
X101261905Y-77434819D01*
X101261905Y-77434819D02*
X101500000Y-77434819D01*
X101500000Y-77434819D02*
X101642857Y-77482438D01*
X101642857Y-77482438D02*
X101738095Y-77577676D01*
X101738095Y-77577676D02*
X101785714Y-77672914D01*
X101785714Y-77672914D02*
X101833333Y-77863390D01*
X101833333Y-77863390D02*
X101833333Y-78006247D01*
X101833333Y-78006247D02*
X101785714Y-78196723D01*
X101785714Y-78196723D02*
X101738095Y-78291961D01*
X101738095Y-78291961D02*
X101642857Y-78387200D01*
X101642857Y-78387200D02*
X101500000Y-78434819D01*
X101500000Y-78434819D02*
X101261905Y-78434819D01*
X102690476Y-77768152D02*
X102690476Y-78434819D01*
X102452381Y-77387200D02*
X102214286Y-78101485D01*
X102214286Y-78101485D02*
X102833333Y-78101485D01*
X97928095Y-78754819D02*
X97928095Y-77754819D01*
X98499523Y-78754819D02*
X98070952Y-78183390D01*
X98499523Y-77754819D02*
X97928095Y-78326247D01*
X171749905Y-62771200D02*
X171892762Y-62818819D01*
X171892762Y-62818819D02*
X172130857Y-62818819D01*
X172130857Y-62818819D02*
X172226095Y-62771200D01*
X172226095Y-62771200D02*
X172273714Y-62723580D01*
X172273714Y-62723580D02*
X172321333Y-62628342D01*
X172321333Y-62628342D02*
X172321333Y-62533104D01*
X172321333Y-62533104D02*
X172273714Y-62437866D01*
X172273714Y-62437866D02*
X172226095Y-62390247D01*
X172226095Y-62390247D02*
X172130857Y-62342628D01*
X172130857Y-62342628D02*
X171940381Y-62295009D01*
X171940381Y-62295009D02*
X171845143Y-62247390D01*
X171845143Y-62247390D02*
X171797524Y-62199771D01*
X171797524Y-62199771D02*
X171749905Y-62104533D01*
X171749905Y-62104533D02*
X171749905Y-62009295D01*
X171749905Y-62009295D02*
X171797524Y-61914057D01*
X171797524Y-61914057D02*
X171845143Y-61866438D01*
X171845143Y-61866438D02*
X171940381Y-61818819D01*
X171940381Y-61818819D02*
X172178476Y-61818819D01*
X172178476Y-61818819D02*
X172321333Y-61866438D01*
X173273714Y-62818819D02*
X172702286Y-62818819D01*
X172988000Y-62818819D02*
X172988000Y-61818819D01*
X172988000Y-61818819D02*
X172892762Y-61961676D01*
X172892762Y-61961676D02*
X172797524Y-62056914D01*
X172797524Y-62056914D02*
X172702286Y-62104533D01*
X173892762Y-61818819D02*
X173988000Y-61818819D01*
X173988000Y-61818819D02*
X174083238Y-61866438D01*
X174083238Y-61866438D02*
X174130857Y-61914057D01*
X174130857Y-61914057D02*
X174178476Y-62009295D01*
X174178476Y-62009295D02*
X174226095Y-62199771D01*
X174226095Y-62199771D02*
X174226095Y-62437866D01*
X174226095Y-62437866D02*
X174178476Y-62628342D01*
X174178476Y-62628342D02*
X174130857Y-62723580D01*
X174130857Y-62723580D02*
X174083238Y-62771200D01*
X174083238Y-62771200D02*
X173988000Y-62818819D01*
X173988000Y-62818819D02*
X173892762Y-62818819D01*
X173892762Y-62818819D02*
X173797524Y-62771200D01*
X173797524Y-62771200D02*
X173749905Y-62723580D01*
X173749905Y-62723580D02*
X173702286Y-62628342D01*
X173702286Y-62628342D02*
X173654667Y-62437866D01*
X173654667Y-62437866D02*
X173654667Y-62199771D01*
X173654667Y-62199771D02*
X173702286Y-62009295D01*
X173702286Y-62009295D02*
X173749905Y-61914057D01*
X173749905Y-61914057D02*
X173797524Y-61866438D01*
X173797524Y-61866438D02*
X173892762Y-61818819D01*
X101071905Y-91934819D02*
X101071905Y-90934819D01*
X101071905Y-90934819D02*
X101310000Y-90934819D01*
X101310000Y-90934819D02*
X101452857Y-90982438D01*
X101452857Y-90982438D02*
X101548095Y-91077676D01*
X101548095Y-91077676D02*
X101595714Y-91172914D01*
X101595714Y-91172914D02*
X101643333Y-91363390D01*
X101643333Y-91363390D02*
X101643333Y-91506247D01*
X101643333Y-91506247D02*
X101595714Y-91696723D01*
X101595714Y-91696723D02*
X101548095Y-91791961D01*
X101548095Y-91791961D02*
X101452857Y-91887200D01*
X101452857Y-91887200D02*
X101310000Y-91934819D01*
X101310000Y-91934819D02*
X101071905Y-91934819D01*
X101976667Y-90934819D02*
X102643333Y-90934819D01*
X102643333Y-90934819D02*
X102214762Y-91934819D01*
X97738095Y-92254819D02*
X97738095Y-91254819D01*
X98309523Y-92254819D02*
X97880952Y-91683390D01*
X98309523Y-91254819D02*
X97738095Y-91826247D01*
X101071905Y-82934819D02*
X101071905Y-81934819D01*
X101071905Y-81934819D02*
X101310000Y-81934819D01*
X101310000Y-81934819D02*
X101452857Y-81982438D01*
X101452857Y-81982438D02*
X101548095Y-82077676D01*
X101548095Y-82077676D02*
X101595714Y-82172914D01*
X101595714Y-82172914D02*
X101643333Y-82363390D01*
X101643333Y-82363390D02*
X101643333Y-82506247D01*
X101643333Y-82506247D02*
X101595714Y-82696723D01*
X101595714Y-82696723D02*
X101548095Y-82791961D01*
X101548095Y-82791961D02*
X101452857Y-82887200D01*
X101452857Y-82887200D02*
X101310000Y-82934819D01*
X101310000Y-82934819D02*
X101071905Y-82934819D01*
X102548095Y-81934819D02*
X102071905Y-81934819D01*
X102071905Y-81934819D02*
X102024286Y-82411009D01*
X102024286Y-82411009D02*
X102071905Y-82363390D01*
X102071905Y-82363390D02*
X102167143Y-82315771D01*
X102167143Y-82315771D02*
X102405238Y-82315771D01*
X102405238Y-82315771D02*
X102500476Y-82363390D01*
X102500476Y-82363390D02*
X102548095Y-82411009D01*
X102548095Y-82411009D02*
X102595714Y-82506247D01*
X102595714Y-82506247D02*
X102595714Y-82744342D01*
X102595714Y-82744342D02*
X102548095Y-82839580D01*
X102548095Y-82839580D02*
X102500476Y-82887200D01*
X102500476Y-82887200D02*
X102405238Y-82934819D01*
X102405238Y-82934819D02*
X102167143Y-82934819D01*
X102167143Y-82934819D02*
X102071905Y-82887200D01*
X102071905Y-82887200D02*
X102024286Y-82839580D01*
X97738095Y-83254819D02*
X97738095Y-82254819D01*
X98309523Y-83254819D02*
X97880952Y-82683390D01*
X98309523Y-82254819D02*
X97738095Y-82826247D01*
X133726095Y-100775200D02*
X133868952Y-100822819D01*
X133868952Y-100822819D02*
X134107047Y-100822819D01*
X134107047Y-100822819D02*
X134202285Y-100775200D01*
X134202285Y-100775200D02*
X134249904Y-100727580D01*
X134249904Y-100727580D02*
X134297523Y-100632342D01*
X134297523Y-100632342D02*
X134297523Y-100537104D01*
X134297523Y-100537104D02*
X134249904Y-100441866D01*
X134249904Y-100441866D02*
X134202285Y-100394247D01*
X134202285Y-100394247D02*
X134107047Y-100346628D01*
X134107047Y-100346628D02*
X133916571Y-100299009D01*
X133916571Y-100299009D02*
X133821333Y-100251390D01*
X133821333Y-100251390D02*
X133773714Y-100203771D01*
X133773714Y-100203771D02*
X133726095Y-100108533D01*
X133726095Y-100108533D02*
X133726095Y-100013295D01*
X133726095Y-100013295D02*
X133773714Y-99918057D01*
X133773714Y-99918057D02*
X133821333Y-99870438D01*
X133821333Y-99870438D02*
X133916571Y-99822819D01*
X133916571Y-99822819D02*
X134154666Y-99822819D01*
X134154666Y-99822819D02*
X134297523Y-99870438D01*
X135154666Y-99822819D02*
X134964190Y-99822819D01*
X134964190Y-99822819D02*
X134868952Y-99870438D01*
X134868952Y-99870438D02*
X134821333Y-99918057D01*
X134821333Y-99918057D02*
X134726095Y-100060914D01*
X134726095Y-100060914D02*
X134678476Y-100251390D01*
X134678476Y-100251390D02*
X134678476Y-100632342D01*
X134678476Y-100632342D02*
X134726095Y-100727580D01*
X134726095Y-100727580D02*
X134773714Y-100775200D01*
X134773714Y-100775200D02*
X134868952Y-100822819D01*
X134868952Y-100822819D02*
X135059428Y-100822819D01*
X135059428Y-100822819D02*
X135154666Y-100775200D01*
X135154666Y-100775200D02*
X135202285Y-100727580D01*
X135202285Y-100727580D02*
X135249904Y-100632342D01*
X135249904Y-100632342D02*
X135249904Y-100394247D01*
X135249904Y-100394247D02*
X135202285Y-100299009D01*
X135202285Y-100299009D02*
X135154666Y-100251390D01*
X135154666Y-100251390D02*
X135059428Y-100203771D01*
X135059428Y-100203771D02*
X134868952Y-100203771D01*
X134868952Y-100203771D02*
X134773714Y-100251390D01*
X134773714Y-100251390D02*
X134726095Y-100299009D01*
X134726095Y-100299009D02*
X134678476Y-100394247D01*
D11*
X199622690Y-79903479D02*
X199622690Y-80417526D01*
X199622690Y-80417526D02*
X199652928Y-80478002D01*
X199652928Y-80478002D02*
X199683166Y-80508241D01*
X199683166Y-80508241D02*
X199743642Y-80538479D01*
X199743642Y-80538479D02*
X199864595Y-80538479D01*
X199864595Y-80538479D02*
X199925071Y-80508241D01*
X199925071Y-80508241D02*
X199955309Y-80478002D01*
X199955309Y-80478002D02*
X199985547Y-80417526D01*
X199985547Y-80417526D02*
X199985547Y-79903479D01*
X200620547Y-80538479D02*
X200257690Y-80538479D01*
X200439118Y-80538479D02*
X200439118Y-79903479D01*
X200439118Y-79903479D02*
X200378642Y-79994193D01*
X200378642Y-79994193D02*
X200318166Y-80054669D01*
X200318166Y-80054669D02*
X200257690Y-80084907D01*
D10*
X101261905Y-73884819D02*
X101261905Y-72884819D01*
X101261905Y-72884819D02*
X101500000Y-72884819D01*
X101500000Y-72884819D02*
X101642857Y-72932438D01*
X101642857Y-72932438D02*
X101738095Y-73027676D01*
X101738095Y-73027676D02*
X101785714Y-73122914D01*
X101785714Y-73122914D02*
X101833333Y-73313390D01*
X101833333Y-73313390D02*
X101833333Y-73456247D01*
X101833333Y-73456247D02*
X101785714Y-73646723D01*
X101785714Y-73646723D02*
X101738095Y-73741961D01*
X101738095Y-73741961D02*
X101642857Y-73837200D01*
X101642857Y-73837200D02*
X101500000Y-73884819D01*
X101500000Y-73884819D02*
X101261905Y-73884819D01*
X102166667Y-72884819D02*
X102785714Y-72884819D01*
X102785714Y-72884819D02*
X102452381Y-73265771D01*
X102452381Y-73265771D02*
X102595238Y-73265771D01*
X102595238Y-73265771D02*
X102690476Y-73313390D01*
X102690476Y-73313390D02*
X102738095Y-73361009D01*
X102738095Y-73361009D02*
X102785714Y-73456247D01*
X102785714Y-73456247D02*
X102785714Y-73694342D01*
X102785714Y-73694342D02*
X102738095Y-73789580D01*
X102738095Y-73789580D02*
X102690476Y-73837200D01*
X102690476Y-73837200D02*
X102595238Y-73884819D01*
X102595238Y-73884819D02*
X102309524Y-73884819D01*
X102309524Y-73884819D02*
X102214286Y-73837200D01*
X102214286Y-73837200D02*
X102166667Y-73789580D01*
X97928095Y-74204819D02*
X97928095Y-73204819D01*
X98499523Y-74204819D02*
X98070952Y-73633390D01*
X98499523Y-73204819D02*
X97928095Y-73776247D01*
X133726095Y-82275200D02*
X133868952Y-82322819D01*
X133868952Y-82322819D02*
X134107047Y-82322819D01*
X134107047Y-82322819D02*
X134202285Y-82275200D01*
X134202285Y-82275200D02*
X134249904Y-82227580D01*
X134249904Y-82227580D02*
X134297523Y-82132342D01*
X134297523Y-82132342D02*
X134297523Y-82037104D01*
X134297523Y-82037104D02*
X134249904Y-81941866D01*
X134249904Y-81941866D02*
X134202285Y-81894247D01*
X134202285Y-81894247D02*
X134107047Y-81846628D01*
X134107047Y-81846628D02*
X133916571Y-81799009D01*
X133916571Y-81799009D02*
X133821333Y-81751390D01*
X133821333Y-81751390D02*
X133773714Y-81703771D01*
X133773714Y-81703771D02*
X133726095Y-81608533D01*
X133726095Y-81608533D02*
X133726095Y-81513295D01*
X133726095Y-81513295D02*
X133773714Y-81418057D01*
X133773714Y-81418057D02*
X133821333Y-81370438D01*
X133821333Y-81370438D02*
X133916571Y-81322819D01*
X133916571Y-81322819D02*
X134154666Y-81322819D01*
X134154666Y-81322819D02*
X134297523Y-81370438D01*
X135202285Y-81322819D02*
X134726095Y-81322819D01*
X134726095Y-81322819D02*
X134678476Y-81799009D01*
X134678476Y-81799009D02*
X134726095Y-81751390D01*
X134726095Y-81751390D02*
X134821333Y-81703771D01*
X134821333Y-81703771D02*
X135059428Y-81703771D01*
X135059428Y-81703771D02*
X135154666Y-81751390D01*
X135154666Y-81751390D02*
X135202285Y-81799009D01*
X135202285Y-81799009D02*
X135249904Y-81894247D01*
X135249904Y-81894247D02*
X135249904Y-82132342D01*
X135249904Y-82132342D02*
X135202285Y-82227580D01*
X135202285Y-82227580D02*
X135154666Y-82275200D01*
X135154666Y-82275200D02*
X135059428Y-82322819D01*
X135059428Y-82322819D02*
X134821333Y-82322819D01*
X134821333Y-82322819D02*
X134726095Y-82275200D01*
X134726095Y-82275200D02*
X134678476Y-82227580D01*
X171749905Y-81775200D02*
X171892762Y-81822819D01*
X171892762Y-81822819D02*
X172130857Y-81822819D01*
X172130857Y-81822819D02*
X172226095Y-81775200D01*
X172226095Y-81775200D02*
X172273714Y-81727580D01*
X172273714Y-81727580D02*
X172321333Y-81632342D01*
X172321333Y-81632342D02*
X172321333Y-81537104D01*
X172321333Y-81537104D02*
X172273714Y-81441866D01*
X172273714Y-81441866D02*
X172226095Y-81394247D01*
X172226095Y-81394247D02*
X172130857Y-81346628D01*
X172130857Y-81346628D02*
X171940381Y-81299009D01*
X171940381Y-81299009D02*
X171845143Y-81251390D01*
X171845143Y-81251390D02*
X171797524Y-81203771D01*
X171797524Y-81203771D02*
X171749905Y-81108533D01*
X171749905Y-81108533D02*
X171749905Y-81013295D01*
X171749905Y-81013295D02*
X171797524Y-80918057D01*
X171797524Y-80918057D02*
X171845143Y-80870438D01*
X171845143Y-80870438D02*
X171940381Y-80822819D01*
X171940381Y-80822819D02*
X172178476Y-80822819D01*
X172178476Y-80822819D02*
X172321333Y-80870438D01*
X173273714Y-81822819D02*
X172702286Y-81822819D01*
X172988000Y-81822819D02*
X172988000Y-80822819D01*
X172988000Y-80822819D02*
X172892762Y-80965676D01*
X172892762Y-80965676D02*
X172797524Y-81060914D01*
X172797524Y-81060914D02*
X172702286Y-81108533D01*
X174226095Y-81822819D02*
X173654667Y-81822819D01*
X173940381Y-81822819D02*
X173940381Y-80822819D01*
X173940381Y-80822819D02*
X173845143Y-80965676D01*
X173845143Y-80965676D02*
X173749905Y-81060914D01*
X173749905Y-81060914D02*
X173654667Y-81108533D01*
X152416095Y-100775200D02*
X152558952Y-100822819D01*
X152558952Y-100822819D02*
X152797047Y-100822819D01*
X152797047Y-100822819D02*
X152892285Y-100775200D01*
X152892285Y-100775200D02*
X152939904Y-100727580D01*
X152939904Y-100727580D02*
X152987523Y-100632342D01*
X152987523Y-100632342D02*
X152987523Y-100537104D01*
X152987523Y-100537104D02*
X152939904Y-100441866D01*
X152939904Y-100441866D02*
X152892285Y-100394247D01*
X152892285Y-100394247D02*
X152797047Y-100346628D01*
X152797047Y-100346628D02*
X152606571Y-100299009D01*
X152606571Y-100299009D02*
X152511333Y-100251390D01*
X152511333Y-100251390D02*
X152463714Y-100203771D01*
X152463714Y-100203771D02*
X152416095Y-100108533D01*
X152416095Y-100108533D02*
X152416095Y-100013295D01*
X152416095Y-100013295D02*
X152463714Y-99918057D01*
X152463714Y-99918057D02*
X152511333Y-99870438D01*
X152511333Y-99870438D02*
X152606571Y-99822819D01*
X152606571Y-99822819D02*
X152844666Y-99822819D01*
X152844666Y-99822819D02*
X152987523Y-99870438D01*
X153463714Y-100822819D02*
X153654190Y-100822819D01*
X153654190Y-100822819D02*
X153749428Y-100775200D01*
X153749428Y-100775200D02*
X153797047Y-100727580D01*
X153797047Y-100727580D02*
X153892285Y-100584723D01*
X153892285Y-100584723D02*
X153939904Y-100394247D01*
X153939904Y-100394247D02*
X153939904Y-100013295D01*
X153939904Y-100013295D02*
X153892285Y-99918057D01*
X153892285Y-99918057D02*
X153844666Y-99870438D01*
X153844666Y-99870438D02*
X153749428Y-99822819D01*
X153749428Y-99822819D02*
X153558952Y-99822819D01*
X153558952Y-99822819D02*
X153463714Y-99870438D01*
X153463714Y-99870438D02*
X153416095Y-99918057D01*
X153416095Y-99918057D02*
X153368476Y-100013295D01*
X153368476Y-100013295D02*
X153368476Y-100251390D01*
X153368476Y-100251390D02*
X153416095Y-100346628D01*
X153416095Y-100346628D02*
X153463714Y-100394247D01*
X153463714Y-100394247D02*
X153558952Y-100441866D01*
X153558952Y-100441866D02*
X153749428Y-100441866D01*
X153749428Y-100441866D02*
X153844666Y-100394247D01*
X153844666Y-100394247D02*
X153892285Y-100346628D01*
X153892285Y-100346628D02*
X153939904Y-100251390D01*
%TO.C,D2*%
D12*
X99230000Y-71000000D02*
X99880000Y-71000000D01*
X100480000Y-69880000D02*
X100480000Y-72120000D01*
X100600000Y-69880000D02*
X100600000Y-72120000D01*
X100720000Y-69880000D02*
X100720000Y-72120000D01*
X104770000Y-71000000D02*
X104120000Y-71000000D01*
X99880000Y-69880000D02*
X104120000Y-69880000D01*
X104120000Y-72120000D01*
X99880000Y-72120000D01*
X99880000Y-69880000D01*
%TO.C,D10*%
X99040000Y-107000000D02*
X99690000Y-107000000D01*
X100290000Y-105880000D02*
X100290000Y-108120000D01*
X100410000Y-105880000D02*
X100410000Y-108120000D01*
X100530000Y-105880000D02*
X100530000Y-108120000D01*
X104580000Y-107000000D02*
X103930000Y-107000000D01*
X99690000Y-105880000D02*
X103930000Y-105880000D01*
X103930000Y-108120000D01*
X99690000Y-108120000D01*
X99690000Y-105880000D01*
%TO.C,D6*%
X99040000Y-89100000D02*
X99690000Y-89100000D01*
X100290000Y-87980000D02*
X100290000Y-90220000D01*
X100410000Y-87980000D02*
X100410000Y-90220000D01*
X100530000Y-87980000D02*
X100530000Y-90220000D01*
X104580000Y-89100000D02*
X103930000Y-89100000D01*
X99690000Y-87980000D02*
X103930000Y-87980000D01*
X103930000Y-90220000D01*
X99690000Y-90220000D01*
X99690000Y-87980000D01*
%TO.C,S1*%
D13*
X113253000Y-64289000D02*
X113253000Y-79783000D01*
X113253000Y-79783000D02*
X128747000Y-79783000D01*
X128747000Y-64289000D02*
X113253000Y-64289000D01*
X128747000Y-79783000D02*
X128747000Y-64289000D01*
%TO.C,D12*%
D12*
X99040000Y-116000000D02*
X99690000Y-116000000D01*
X100290000Y-114880000D02*
X100290000Y-117120000D01*
X100410000Y-114880000D02*
X100410000Y-117120000D01*
X100530000Y-114880000D02*
X100530000Y-117120000D01*
X104580000Y-116000000D02*
X103930000Y-116000000D01*
X99690000Y-114880000D02*
X103930000Y-114880000D01*
X103930000Y-117120000D01*
X99690000Y-117120000D01*
X99690000Y-114880000D01*
%TO.C,D11*%
X99040000Y-111500000D02*
X99690000Y-111500000D01*
X100290000Y-110380000D02*
X100290000Y-112620000D01*
X100410000Y-110380000D02*
X100410000Y-112620000D01*
X100530000Y-110380000D02*
X100530000Y-112620000D01*
X104580000Y-111500000D02*
X103930000Y-111500000D01*
X99690000Y-110380000D02*
X103930000Y-110380000D01*
X103930000Y-112620000D01*
X99690000Y-112620000D01*
X99690000Y-110380000D01*
%TO.C,S4*%
D13*
X131563000Y-64289000D02*
X131563000Y-79783000D01*
X131563000Y-79783000D02*
X147057000Y-79783000D01*
X147057000Y-64289000D02*
X131563000Y-64289000D01*
X147057000Y-79783000D02*
X147057000Y-64289000D01*
%TO.C,S8*%
X150253000Y-83753000D02*
X150253000Y-99247000D01*
X150253000Y-99247000D02*
X165747000Y-99247000D01*
X165747000Y-83753000D02*
X150253000Y-83753000D01*
X165747000Y-99247000D02*
X165747000Y-83753000D01*
%TO.C,D8*%
D12*
X99040000Y-98100000D02*
X99690000Y-98100000D01*
X100290000Y-96980000D02*
X100290000Y-99220000D01*
X100410000Y-96980000D02*
X100410000Y-99220000D01*
X100530000Y-96980000D02*
X100530000Y-99220000D01*
X104580000Y-98100000D02*
X103930000Y-98100000D01*
X99690000Y-96980000D02*
X103930000Y-96980000D01*
X103930000Y-99220000D01*
X99690000Y-99220000D01*
X99690000Y-96980000D01*
%TO.C,D1*%
X99230000Y-66900000D02*
X99880000Y-66900000D01*
X100480000Y-65780000D02*
X100480000Y-68020000D01*
X100600000Y-65780000D02*
X100600000Y-68020000D01*
X100720000Y-65780000D02*
X100720000Y-68020000D01*
X104770000Y-66900000D02*
X104120000Y-66900000D01*
X99880000Y-65780000D02*
X104120000Y-65780000D01*
X104120000Y-68020000D01*
X99880000Y-68020000D01*
X99880000Y-65780000D01*
%TO.C,D9*%
X99040000Y-102450000D02*
X99690000Y-102450000D01*
X100290000Y-101330000D02*
X100290000Y-103570000D01*
X100410000Y-101330000D02*
X100410000Y-103570000D01*
X100530000Y-101330000D02*
X100530000Y-103570000D01*
X104580000Y-102450000D02*
X103930000Y-102450000D01*
X99690000Y-101330000D02*
X103930000Y-101330000D01*
X103930000Y-103570000D01*
X99690000Y-103570000D01*
X99690000Y-101330000D01*
%TO.C,S7*%
D13*
X150253000Y-64253000D02*
X150253000Y-79747000D01*
X150253000Y-79747000D02*
X165747000Y-79747000D01*
X165747000Y-64253000D02*
X150253000Y-64253000D01*
X165747000Y-79747000D02*
X165747000Y-64253000D01*
%TO.C,S3*%
X113253000Y-102253000D02*
X113253000Y-117747000D01*
X113253000Y-117747000D02*
X128747000Y-117747000D01*
X128747000Y-102253000D02*
X113253000Y-102253000D01*
X128747000Y-117747000D02*
X128747000Y-102253000D01*
%TO.C,S2*%
X113253000Y-83753000D02*
X113253000Y-99247000D01*
X113253000Y-99247000D02*
X128747000Y-99247000D01*
X128747000Y-83753000D02*
X113253000Y-83753000D01*
X128747000Y-99247000D02*
X128747000Y-83753000D01*
%TO.C,S12*%
X170063000Y-102253000D02*
X170063000Y-117747000D01*
X170063000Y-117747000D02*
X185557000Y-117747000D01*
X185557000Y-102253000D02*
X170063000Y-102253000D01*
X185557000Y-117747000D02*
X185557000Y-102253000D01*
%TO.C,D4*%
D12*
X99230000Y-80100000D02*
X99880000Y-80100000D01*
X100480000Y-78980000D02*
X100480000Y-81220000D01*
X100600000Y-78980000D02*
X100600000Y-81220000D01*
X100720000Y-78980000D02*
X100720000Y-81220000D01*
X104770000Y-80100000D02*
X104120000Y-80100000D01*
X99880000Y-78980000D02*
X104120000Y-78980000D01*
X104120000Y-81220000D01*
X99880000Y-81220000D01*
X99880000Y-78980000D01*
%TO.C,S10*%
D13*
X170063000Y-64249000D02*
X170063000Y-79743000D01*
X170063000Y-79743000D02*
X185557000Y-79743000D01*
X185557000Y-64249000D02*
X170063000Y-64249000D01*
X185557000Y-79743000D02*
X185557000Y-64249000D01*
%TO.C,D7*%
D12*
X99040000Y-93600000D02*
X99690000Y-93600000D01*
X100290000Y-92480000D02*
X100290000Y-94720000D01*
X100410000Y-92480000D02*
X100410000Y-94720000D01*
X100530000Y-92480000D02*
X100530000Y-94720000D01*
X104580000Y-93600000D02*
X103930000Y-93600000D01*
X99690000Y-92480000D02*
X103930000Y-92480000D01*
X103930000Y-94720000D01*
X99690000Y-94720000D01*
X99690000Y-92480000D01*
%TO.C,D5*%
X99040000Y-84600000D02*
X99690000Y-84600000D01*
X100290000Y-83480000D02*
X100290000Y-85720000D01*
X100410000Y-83480000D02*
X100410000Y-85720000D01*
X100530000Y-83480000D02*
X100530000Y-85720000D01*
X104580000Y-84600000D02*
X103930000Y-84600000D01*
X99690000Y-83480000D02*
X103930000Y-83480000D01*
X103930000Y-85720000D01*
X99690000Y-85720000D01*
X99690000Y-83480000D01*
%TO.C,S6*%
D13*
X131563000Y-102253000D02*
X131563000Y-117747000D01*
X131563000Y-117747000D02*
X147057000Y-117747000D01*
X147057000Y-102253000D02*
X131563000Y-102253000D01*
X147057000Y-117747000D02*
X147057000Y-102253000D01*
%TO.C,U1*%
X189817500Y-83515000D02*
X189817500Y-97485000D01*
X191722500Y-81610000D02*
X208867500Y-81610000D01*
X191722500Y-99390000D02*
X208867500Y-99390000D01*
X210772500Y-86005000D02*
X211682772Y-86008728D01*
D14*
X210772500Y-97485000D02*
X210772500Y-83515000D01*
D13*
X210772500Y-97485000D02*
X210772500Y-83515000D01*
X211682500Y-95004000D02*
X210772500Y-95004000D01*
X212182500Y-86508728D02*
X212182500Y-94504000D01*
X189817500Y-83515000D02*
G75*
G02*
X191722500Y-81610000I1905001J-1D01*
G01*
X191722500Y-99390000D02*
G75*
G02*
X189817500Y-97485000I1J1905001D01*
G01*
X208867500Y-81610000D02*
G75*
G02*
X210772500Y-83515000I0J-1905000D01*
G01*
X210772500Y-97485000D02*
G75*
G02*
X208867500Y-99390000I-1905000J0D01*
G01*
X211682772Y-86008728D02*
G75*
G02*
X212182472Y-86508728I-272J-499972D01*
G01*
X212182500Y-94504000D02*
G75*
G02*
X211682500Y-95004000I-500000J0D01*
G01*
D15*
X209903500Y-82693000D02*
G75*
G02*
X209399500Y-82693000I-252000J0D01*
G01*
X209399500Y-82693000D02*
G75*
G02*
X209903500Y-82693000I252000J0D01*
G01*
X210783500Y-81550000D02*
G75*
G02*
X210279500Y-81550000I-252000J0D01*
G01*
X210279500Y-81550000D02*
G75*
G02*
X210783500Y-81550000I252000J0D01*
G01*
%TO.C,D3*%
D12*
X99230000Y-75550000D02*
X99880000Y-75550000D01*
X100480000Y-74430000D02*
X100480000Y-76670000D01*
X100600000Y-74430000D02*
X100600000Y-76670000D01*
X100720000Y-74430000D02*
X100720000Y-76670000D01*
X104770000Y-75550000D02*
X104120000Y-75550000D01*
X99880000Y-74430000D02*
X104120000Y-74430000D01*
X104120000Y-76670000D01*
X99880000Y-76670000D01*
X99880000Y-74430000D01*
%TO.C,S5*%
D13*
X131563000Y-83753000D02*
X131563000Y-99247000D01*
X131563000Y-99247000D02*
X147057000Y-99247000D01*
X147057000Y-83753000D02*
X131563000Y-83753000D01*
X147057000Y-99247000D02*
X147057000Y-83753000D01*
%TO.C,S11*%
X170063000Y-83253000D02*
X170063000Y-98747000D01*
X170063000Y-98747000D02*
X185557000Y-98747000D01*
X185557000Y-83253000D02*
X170063000Y-83253000D01*
X185557000Y-98747000D02*
X185557000Y-83253000D01*
%TO.C,S9*%
X150253000Y-102253000D02*
X150253000Y-117747000D01*
X150253000Y-117747000D02*
X165747000Y-117747000D01*
X165747000Y-102253000D02*
X150253000Y-102253000D01*
X165747000Y-117747000D02*
X165747000Y-102253000D01*
%TD*%
M02*
