%TF.GenerationSoftware,KiCad,Pcbnew,10.0.1*%
%TF.CreationDate,2026-05-04T20:20:41+08:00*%
%TF.ProjectId,GETOU_,4745544f-555f-42e6-9b69-6361645f7063,rev?*%
%TF.SameCoordinates,Original*%
%TF.FileFunction,Copper,L2,Bot*%
%TF.FilePolarity,Positive*%
%FSLAX46Y46*%
G04 Gerber Fmt 4.6, Leading zero omitted, Abs format (unit mm)*
G04 Created by KiCad (PCBNEW 10.0.1) date 2026-05-04 20:20:41*
%MOMM*%
%LPD*%
G01*
G04 APERTURE LIST*
G04 Aperture macros list*
%AMRoundRect*
0 Rectangle with rounded corners*
0 $1 Rounding radius*
0 $2 $3 $4 $5 $6 $7 $8 $9 X,Y pos of 4 corners*
0 Add a 4 corners polygon primitive as box body*
4,1,4,$2,$3,$4,$5,$6,$7,$8,$9,$2,$3,0*
0 Add four circle primitives for the rounded corners*
1,1,$1+$1,$2,$3*
1,1,$1+$1,$4,$5*
1,1,$1+$1,$6,$7*
1,1,$1+$1,$8,$9*
0 Add four rect primitives between the rounded corners*
20,1,$1+$1,$2,$3,$4,$5,0*
20,1,$1+$1,$4,$5,$6,$7,0*
20,1,$1+$1,$6,$7,$8,$9,0*
20,1,$1+$1,$8,$9,$2,$3,0*%
G04 Aperture macros list end*
%TA.AperFunction,ComponentPad*%
%ADD10RoundRect,0.250000X-0.550000X-0.550000X0.550000X-0.550000X0.550000X0.550000X-0.550000X0.550000X0*%
%TD*%
%TA.AperFunction,ComponentPad*%
%ADD11C,1.600000*%
%TD*%
%TA.AperFunction,ComponentPad*%
%ADD12C,2.324100*%
%TD*%
%TA.AperFunction,ComponentPad*%
%ADD13C,1.524000*%
%TD*%
%TA.AperFunction,ViaPad*%
%ADD14C,0.600000*%
%TD*%
%TA.AperFunction,Conductor*%
%ADD15C,0.200000*%
%TD*%
G04 APERTURE END LIST*
D10*
%TO.P,D2,1,K_1*%
%TO.N,col1*%
X98190000Y-71000000D03*
D11*
%TO.P,D2,2,A_2*%
%TO.N,Net-(D2-A)*%
X105810000Y-71000000D03*
%TD*%
D10*
%TO.P,D10,1,K_1*%
%TO.N,col1*%
X98000000Y-107000000D03*
D11*
%TO.P,D10,2,A_2*%
%TO.N,Net-(D10-A)*%
X105620000Y-107000000D03*
%TD*%
D10*
%TO.P,D6,1,K_1*%
%TO.N,col2*%
X98000000Y-89100000D03*
D11*
%TO.P,D6,2,A_2*%
%TO.N,Net-(D6-A)*%
X105620000Y-89100000D03*
%TD*%
D12*
%TO.P,S1,1*%
%TO.N,row0*%
X117190000Y-69496000D03*
%TO.P,S1,2*%
%TO.N,Net-(D1-A)*%
X123540000Y-66956000D03*
%TD*%
D10*
%TO.P,D12,1,K_1*%
%TO.N,col2*%
X98000000Y-116000000D03*
D11*
%TO.P,D12,2,A_2*%
%TO.N,Net-(D12-A)*%
X105620000Y-116000000D03*
%TD*%
D10*
%TO.P,D11,1,K_1*%
%TO.N,col0*%
X98000000Y-111500000D03*
D11*
%TO.P,D11,2,A_2*%
%TO.N,Net-(D11-A)*%
X105620000Y-111500000D03*
%TD*%
D12*
%TO.P,S4,1*%
%TO.N,row1*%
X135500000Y-69496000D03*
%TO.P,S4,2*%
%TO.N,Net-(D4-A)*%
X141850000Y-66956000D03*
%TD*%
%TO.P,S8,1*%
%TO.N,row2*%
X154190000Y-88960000D03*
%TO.P,S8,2*%
%TO.N,Net-(D8-A)*%
X160540000Y-86420000D03*
%TD*%
D10*
%TO.P,D8,1,K_1*%
%TO.N,col1*%
X98000000Y-98100000D03*
D11*
%TO.P,D8,2,A_2*%
%TO.N,Net-(D8-A)*%
X105620000Y-98100000D03*
%TD*%
D10*
%TO.P,D1,1,K_1*%
%TO.N,col0*%
X98190000Y-66900000D03*
D11*
%TO.P,D1,2,A_2*%
%TO.N,Net-(D1-A)*%
X105810000Y-66900000D03*
%TD*%
D10*
%TO.P,D9,1,K_1*%
%TO.N,col2*%
X98000000Y-102450000D03*
D11*
%TO.P,D9,2,A_2*%
%TO.N,Net-(D9-A)*%
X105620000Y-102450000D03*
%TD*%
D12*
%TO.P,S7,1*%
%TO.N,row2*%
X154190000Y-69460000D03*
%TO.P,S7,2*%
%TO.N,Net-(D7-A)*%
X160540000Y-66920000D03*
%TD*%
%TO.P,S3,1*%
%TO.N,row0*%
X117190000Y-107460000D03*
%TO.P,S3,2*%
%TO.N,Net-(D3-A)*%
X123540000Y-104920000D03*
%TD*%
%TO.P,S2,1*%
%TO.N,row0*%
X117190000Y-88960000D03*
%TO.P,S2,2*%
%TO.N,Net-(D2-A)*%
X123540000Y-86420000D03*
%TD*%
%TO.P,S12,1*%
%TO.N,row3*%
X174000000Y-107460000D03*
%TO.P,S12,2*%
%TO.N,Net-(D9-A)*%
X180350000Y-104920000D03*
%TD*%
D10*
%TO.P,D4,1,K_1*%
%TO.N,col0*%
X98190000Y-80100000D03*
D11*
%TO.P,D4,2,A_2*%
%TO.N,Net-(D4-A)*%
X105810000Y-80100000D03*
%TD*%
D12*
%TO.P,S10,1*%
%TO.N,row3*%
X174000000Y-69456000D03*
%TO.P,S10,2*%
%TO.N,Net-(D11-A)*%
X180350000Y-66916000D03*
%TD*%
D10*
%TO.P,D7,1,K_1*%
%TO.N,col0*%
X98000000Y-93600000D03*
D11*
%TO.P,D7,2,A_2*%
%TO.N,Net-(D7-A)*%
X105620000Y-93600000D03*
%TD*%
D10*
%TO.P,D5,1,K_1*%
%TO.N,col1*%
X98000000Y-84600000D03*
D11*
%TO.P,D5,2,A_2*%
%TO.N,Net-(D5-A)*%
X105620000Y-84600000D03*
%TD*%
D12*
%TO.P,S6,1*%
%TO.N,row1*%
X135500000Y-107460000D03*
%TO.P,S6,2*%
%TO.N,Net-(D6-A)*%
X141850000Y-104920000D03*
%TD*%
D13*
%TO.P,U1,1,GPIO26/ADC0/A0_1*%
%TO.N,unconnected-(U1-GPIO26{slash}ADC0{slash}A0-Pad1)*%
X207851500Y-82880000D03*
%TO.P,U1,2,GPIO27/ADC1/A1_2*%
%TO.N,unconnected-(U1-GPIO27{slash}ADC1{slash}A1-Pad2)*%
X205311500Y-82880000D03*
%TO.P,U1,3,GPIO28/ADC2/A2_3*%
%TO.N,unconnected-(U1-GPIO28{slash}ADC2{slash}A2-Pad3)*%
X202771500Y-82880000D03*
%TO.P,U1,4,GPIO29/ADC3/A3_4*%
%TO.N,unconnected-(U1-GPIO29{slash}ADC3{slash}A3-Pad4)*%
X200231500Y-82880000D03*
%TO.P,U1,5,GPIO6/SDA_5*%
%TO.N,col2*%
X197691500Y-82880000D03*
%TO.P,U1,6,GPIO7/SCL_6*%
%TO.N,row3*%
X195151500Y-82880000D03*
%TO.P,U1,7,GPIO0/TX_7*%
%TO.N,row0*%
X192611500Y-82880000D03*
%TO.P,U1,8,GPIO1/RX_8*%
%TO.N,row1*%
X192611500Y-98120000D03*
%TO.P,U1,9,GPIO2/SCK_9*%
%TO.N,row2*%
X195151500Y-98120000D03*
%TO.P,U1,10,GPIO4/MISO_10*%
%TO.N,col1*%
X197691500Y-98120000D03*
%TO.P,U1,11,GPIO3/MOSI_11*%
%TO.N,col0*%
X200231500Y-98120000D03*
%TO.P,U1,12,3V3_12*%
%TO.N,unconnected-(U1-3V3-Pad12)*%
X202771500Y-98120000D03*
%TO.P,U1,13,GND_13*%
%TO.N,unconnected-(U1-GND-Pad13)*%
X205311500Y-98120000D03*
%TO.P,U1,14,VBUS_14*%
%TO.N,unconnected-(U1-VBUS-Pad14)*%
X207851500Y-98120000D03*
%TD*%
D10*
%TO.P,D3,1,K_1*%
%TO.N,col2*%
X98190000Y-75550000D03*
D11*
%TO.P,D3,2,A_2*%
%TO.N,Net-(D3-A)*%
X105810000Y-75550000D03*
%TD*%
D12*
%TO.P,S5,1*%
%TO.N,row1*%
X135500000Y-88960000D03*
%TO.P,S5,2*%
%TO.N,Net-(D5-A)*%
X141850000Y-86420000D03*
%TD*%
%TO.P,S11,1*%
%TO.N,row3*%
X174000000Y-88460000D03*
%TO.P,S11,2*%
%TO.N,Net-(D10-A)*%
X180350000Y-85920000D03*
%TD*%
%TO.P,S9,1*%
%TO.N,row2*%
X154190000Y-107460000D03*
%TO.P,S9,2*%
%TO.N,Net-(D12-A)*%
X160540000Y-104920000D03*
%TD*%
D14*
%TO.N,Net-(D7-A)*%
X136444000Y-85664200D03*
%TO.N,row0*%
X114174000Y-88960000D03*
%TO.N,Net-(D11-A)*%
X151242000Y-112661000D03*
%TO.N,Net-(D10-A)*%
X174604000Y-103402000D03*
%TD*%
%TO.N,col0*%
D15*
X99131600Y-110368000D02*
X99131600Y-106250000D01*
X99142900Y-81052900D02*
X98190000Y-80100000D01*
X99142900Y-86075600D02*
X99142900Y-81052900D01*
X99293500Y-68003500D02*
X99293500Y-72033100D01*
X99141000Y-99135600D02*
X99141000Y-94741000D01*
X97069400Y-78979400D02*
X98190000Y-80100000D01*
X96887300Y-88331200D02*
X99142900Y-86075600D01*
X96887300Y-92487300D02*
X96887300Y-88331200D01*
X99131600Y-106250000D02*
X96882200Y-104001000D01*
X99293500Y-72033100D02*
X97069400Y-74257200D01*
X98000000Y-93600000D02*
X96887300Y-92487300D01*
X99142900Y-81052900D02*
X98190000Y-80100000D01*
X99141000Y-94741000D02*
X98000000Y-93600000D01*
X96882200Y-104001000D02*
X96882200Y-101394000D01*
X99141000Y-99135600D02*
X99141000Y-94741000D01*
X99131600Y-106250000D02*
X96882200Y-104001000D01*
X99142900Y-86075600D02*
X99142900Y-81052900D01*
X96887300Y-92487300D02*
X96887300Y-88331200D01*
X96887300Y-88331200D02*
X99142900Y-86075600D01*
X97069400Y-74257200D02*
X97069400Y-78979400D01*
X99293500Y-68003500D02*
X99293500Y-72033100D01*
X96882200Y-104001000D02*
X96882200Y-101394000D01*
X98190000Y-66900000D02*
X99293500Y-68003500D01*
X96882200Y-101394000D02*
X99141000Y-99135600D01*
X98000000Y-111500000D02*
X99131600Y-110368000D01*
X99131600Y-110368000D02*
X99131600Y-106250000D01*
X97069400Y-74257200D02*
X97069400Y-78979400D01*
X99293500Y-72033100D02*
X97069400Y-74257200D01*
X97069400Y-78979400D02*
X98190000Y-80100000D01*
X96882200Y-101394000D02*
X99141000Y-99135600D01*
X99141000Y-94741000D02*
X98000000Y-93600000D01*
%TO.N,Net-(D7-A)*%
X136444000Y-85113600D02*
X154637000Y-66920000D01*
X136444000Y-85113600D02*
X154637000Y-66920000D01*
X154637000Y-66920000D02*
X160540000Y-66920000D01*
X154637000Y-66920000D02*
X160540000Y-66920000D01*
X136444000Y-85664200D02*
X136444000Y-85113600D01*
%TO.N,row2*%
X154190000Y-69460000D02*
X154190000Y-107460000D01*
%TO.N,col1*%
X98000000Y-84600000D02*
X96435600Y-86164400D01*
X96435600Y-86164400D02*
X96435600Y-96535600D01*
X96435600Y-96535600D02*
X98000000Y-98100000D01*
X96480500Y-105480000D02*
X98000000Y-107000000D01*
X98000000Y-98100000D02*
X96480500Y-99619500D01*
X96667700Y-72522300D02*
X96667700Y-83267700D01*
X96667700Y-83267700D02*
X98000000Y-84600000D01*
X98190000Y-71000000D02*
X96667700Y-72522300D01*
X96480500Y-99619500D02*
X96480500Y-105480000D01*
X96667700Y-83267700D02*
X98000000Y-84600000D01*
X96480500Y-105480000D02*
X98000000Y-107000000D01*
X96667700Y-72522300D02*
X96667700Y-83267700D01*
X96435600Y-96535600D02*
X98000000Y-98100000D01*
X96435600Y-86164400D02*
X96435600Y-96535600D01*
X96480500Y-99619500D02*
X96480500Y-105480000D01*
%TO.N,Net-(D2-A)*%
X118683000Y-70469800D02*
X118354000Y-70799500D01*
X108798000Y-68011500D02*
X117844000Y-68011500D01*
X118683000Y-68850700D02*
X118683000Y-70469800D01*
X105810000Y-71000000D02*
X108798000Y-68011500D01*
X117844000Y-68011500D02*
X118683000Y-68850700D01*
X118683000Y-70469800D02*
X118354000Y-70799500D01*
X118354000Y-70799500D02*
X118354000Y-81233700D01*
X118354000Y-70799500D02*
X118354000Y-81233700D01*
X108798000Y-68011500D02*
X117844000Y-68011500D01*
X118683000Y-68850700D02*
X118683000Y-70469800D01*
X118354000Y-81233700D02*
X123540000Y-86420000D01*
X117844000Y-68011500D02*
X118683000Y-68850700D01*
X118354000Y-81233700D02*
X123540000Y-86420000D01*
%TO.N,col2*%
X99542700Y-100907000D02*
X99542700Y-90642700D01*
X99600700Y-87499300D02*
X99600700Y-76960700D01*
X99600700Y-76960700D02*
X98190000Y-75550000D01*
X99542700Y-90642700D02*
X98000000Y-89100000D01*
X99533300Y-114467000D02*
X99533300Y-103983000D01*
X99600700Y-76960700D02*
X98190000Y-75550000D01*
X99600700Y-87499300D02*
X99600700Y-76960700D01*
X99542700Y-90642700D02*
X98000000Y-89100000D01*
X99533300Y-103983000D02*
X98000000Y-102450000D01*
X99542700Y-100907000D02*
X99542700Y-90642700D01*
X98000000Y-102450000D02*
X99542700Y-100907000D01*
X99533300Y-114467000D02*
X99533300Y-103983000D01*
X99533300Y-103983000D02*
X98000000Y-102450000D01*
X98000000Y-116000000D02*
X99533300Y-114467000D01*
X98000000Y-89100000D02*
X99600700Y-87499300D01*
%TO.N,Net-(D3-A)*%
X114959000Y-96339400D02*
X114959000Y-84699300D01*
X123540000Y-104920000D02*
X114959000Y-96339400D01*
X114959000Y-84699300D02*
X105810000Y-75550000D01*
X114959000Y-96339400D02*
X114959000Y-84699300D01*
X114959000Y-84699300D02*
X105810000Y-75550000D01*
%TO.N,row0*%
X117190000Y-107460000D02*
X114174000Y-104444000D01*
X114174000Y-104444000D02*
X114174000Y-88960000D01*
X114174000Y-104444000D02*
X114174000Y-88960000D01*
X117190000Y-69496000D02*
X117190000Y-88960000D01*
%TO.N,Net-(D11-A)*%
X156033000Y-99048500D02*
X156033000Y-107871000D01*
X172006000Y-83075100D02*
X156033000Y-99048500D01*
X172006000Y-69371900D02*
X172006000Y-83075100D01*
X174462000Y-66916000D02*
X172006000Y-69371900D01*
X174462000Y-66916000D02*
X172006000Y-69371900D01*
X180350000Y-66916000D02*
X174462000Y-66916000D01*
X156033000Y-99048500D02*
X156033000Y-107871000D01*
X156033000Y-107871000D02*
X151242000Y-112661000D01*
X172006000Y-69371900D02*
X172006000Y-83075100D01*
X156033000Y-107871000D02*
X151242000Y-112661000D01*
X172006000Y-83075100D02*
X156033000Y-99048500D01*
%TO.N,Net-(D6-A)*%
X104470000Y-95376100D02*
X104470000Y-90249800D01*
X107560000Y-99900100D02*
X107560000Y-98465400D01*
X104470000Y-90249800D02*
X105620000Y-89100000D01*
X140507000Y-104920000D02*
X136502000Y-108925000D01*
X118177000Y-108940000D02*
X116600000Y-108940000D01*
X122017000Y-107345000D02*
X119773000Y-107345000D01*
X118177000Y-108940000D02*
X116600000Y-108940000D01*
X104470000Y-95376100D02*
X104470000Y-90249800D01*
X107560000Y-98465400D02*
X104470000Y-95376100D01*
X122017000Y-107345000D02*
X119773000Y-107345000D01*
X141850000Y-104920000D02*
X140507000Y-104920000D01*
X119773000Y-107345000D02*
X118177000Y-108940000D01*
X136502000Y-108925000D02*
X123598000Y-108925000D01*
X107560000Y-98465400D02*
X104470000Y-95376100D01*
X119773000Y-107345000D02*
X118177000Y-108940000D01*
X136502000Y-108925000D02*
X123598000Y-108925000D01*
X123598000Y-108925000D02*
X122017000Y-107345000D01*
X107560000Y-99900100D02*
X107560000Y-98465400D01*
X140507000Y-104920000D02*
X136502000Y-108925000D01*
X104470000Y-90249800D02*
X105620000Y-89100000D01*
X116600000Y-108940000D02*
X107560000Y-99900100D01*
X123598000Y-108925000D02*
X122017000Y-107345000D01*
X116600000Y-108940000D02*
X107560000Y-99900100D01*
%TO.N,Net-(D4-A)*%
X140359000Y-65464700D02*
X109705000Y-65464700D01*
X104678000Y-70492000D02*
X104678000Y-78968000D01*
X104678000Y-78968000D02*
X105810000Y-80100000D01*
X104678000Y-78968000D02*
X105810000Y-80100000D01*
X104678000Y-70492000D02*
X104678000Y-78968000D01*
X109705000Y-65464700D02*
X104678000Y-70492000D01*
X109705000Y-65464700D02*
X104678000Y-70492000D01*
X141850000Y-66956000D02*
X140359000Y-65464700D01*
X140359000Y-65464700D02*
X109705000Y-65464700D01*
%TO.N,row3*%
X174000000Y-69456000D02*
X174000000Y-107460000D01*
%TO.N,Net-(D10-A)*%
X180428000Y-85997700D02*
X180428000Y-97578300D01*
X180428000Y-97578300D02*
X174604000Y-103402000D01*
X180428000Y-97578300D02*
X174604000Y-103402000D01*
X180428000Y-85997700D02*
X180428000Y-97578300D01*
X180350000Y-85920000D02*
X180428000Y-85997700D01*
%TO.N,row1*%
X135500000Y-69496000D02*
X135500000Y-107460000D01*
%TD*%
M02*
