%TF.GenerationSoftware,KiCad,Pcbnew,10.0.1*%
%TF.CreationDate,2026-05-04T20:20:41+08:00*%
%TF.ProjectId,GETOU_,4745544f-555f-42e6-9b69-6361645f7063,rev?*%
%TF.SameCoordinates,Original*%
%TF.FileFunction,Soldermask,Top*%
%TF.FilePolarity,Negative*%
%FSLAX46Y46*%
G04 Gerber Fmt 4.6, Leading zero omitted, Abs format (unit mm)*
G04 Created by KiCad (PCBNEW 10.0.1) date 2026-05-04 20:20:41*
%MOMM*%
%LPD*%
G01*
G04 APERTURE LIST*
G04 Aperture macros list*
%AMRoundRect*
0 Rectangle with rounded corners*
0 $1 Rounding radius*
0 $2 $3 $4 $5 $6 $7 $8 $9 X,Y pos of 4 corners*
0 Add a 4 corners polygon primitive as box body*
4,1,4,$2,$3,$4,$5,$6,$7,$8,$9,$2,$3,0*
0 Add four circle primitives for the rounded corners*
1,1,$1+$1,$2,$3*
1,1,$1+$1,$4,$5*
1,1,$1+$1,$6,$7*
1,1,$1+$1,$8,$9*
0 Add four rect primitives between the rounded corners*
20,1,$1+$1,$2,$3,$4,$5,0*
20,1,$1+$1,$4,$5,$6,$7,0*
20,1,$1+$1,$6,$7,$8,$9,0*
20,1,$1+$1,$8,$9,$2,$3,0*%
G04 Aperture macros list end*
%ADD10C,0.150000*%
%ADD11RoundRect,0.250000X-0.550000X-0.550000X0.550000X-0.550000X0.550000X0.550000X-0.550000X0.550000X0*%
%ADD12C,1.600000*%
%ADD13C,4.089400*%
%ADD14C,2.528100*%
%ADD15RoundRect,0.152400X0.609600X-1.063600X0.609600X1.063600X-0.609600X1.063600X-0.609600X-1.063600X0*%
%ADD16C,1.524000*%
%ADD17RoundRect,0.152400X-0.609600X1.063600X-0.609600X-1.063600X0.609600X-1.063600X0.609600X1.063600X0*%
G04 APERTURE END LIST*
D10*
X188765350Y-68593208D02*
X188765350Y-69402732D01*
X188765350Y-69402732D02*
X188717731Y-69497970D01*
X188717731Y-69497970D02*
X188670112Y-69545589D01*
X188670112Y-69545589D02*
X188574874Y-69593208D01*
X188574874Y-69593208D02*
X188432017Y-69593208D01*
X188432017Y-69593208D02*
X188336779Y-69545589D01*
X188765350Y-69212256D02*
X188670112Y-69259875D01*
X188670112Y-69259875D02*
X188479636Y-69259875D01*
X188479636Y-69259875D02*
X188384398Y-69212256D01*
X188384398Y-69212256D02*
X188336779Y-69164636D01*
X188336779Y-69164636D02*
X188289160Y-69069398D01*
X188289160Y-69069398D02*
X188289160Y-68783684D01*
X188289160Y-68783684D02*
X188336779Y-68688446D01*
X188336779Y-68688446D02*
X188384398Y-68640827D01*
X188384398Y-68640827D02*
X188479636Y-68593208D01*
X188479636Y-68593208D02*
X188670112Y-68593208D01*
X188670112Y-68593208D02*
X188765350Y-68640827D01*
X189622493Y-69212256D02*
X189527255Y-69259875D01*
X189527255Y-69259875D02*
X189336779Y-69259875D01*
X189336779Y-69259875D02*
X189241541Y-69212256D01*
X189241541Y-69212256D02*
X189193922Y-69117017D01*
X189193922Y-69117017D02*
X189193922Y-68736065D01*
X189193922Y-68736065D02*
X189241541Y-68640827D01*
X189241541Y-68640827D02*
X189336779Y-68593208D01*
X189336779Y-68593208D02*
X189527255Y-68593208D01*
X189527255Y-68593208D02*
X189622493Y-68640827D01*
X189622493Y-68640827D02*
X189670112Y-68736065D01*
X189670112Y-68736065D02*
X189670112Y-68831303D01*
X189670112Y-68831303D02*
X189193922Y-68926541D01*
X189955827Y-68593208D02*
X190336779Y-68593208D01*
X190098684Y-68259875D02*
X190098684Y-69117017D01*
X190098684Y-69117017D02*
X190146303Y-69212256D01*
X190146303Y-69212256D02*
X190241541Y-69259875D01*
X190241541Y-69259875D02*
X190336779Y-69259875D01*
X190812970Y-69259875D02*
X190717732Y-69212256D01*
X190717732Y-69212256D02*
X190670113Y-69164636D01*
X190670113Y-69164636D02*
X190622494Y-69069398D01*
X190622494Y-69069398D02*
X190622494Y-68783684D01*
X190622494Y-68783684D02*
X190670113Y-68688446D01*
X190670113Y-68688446D02*
X190717732Y-68640827D01*
X190717732Y-68640827D02*
X190812970Y-68593208D01*
X190812970Y-68593208D02*
X190955827Y-68593208D01*
X190955827Y-68593208D02*
X191051065Y-68640827D01*
X191051065Y-68640827D02*
X191098684Y-68688446D01*
X191098684Y-68688446D02*
X191146303Y-68783684D01*
X191146303Y-68783684D02*
X191146303Y-69069398D01*
X191146303Y-69069398D02*
X191098684Y-69164636D01*
X191098684Y-69164636D02*
X191051065Y-69212256D01*
X191051065Y-69212256D02*
X190955827Y-69259875D01*
X190955827Y-69259875D02*
X190812970Y-69259875D01*
X192003446Y-68593208D02*
X192003446Y-69259875D01*
X191574875Y-68593208D02*
X191574875Y-69117017D01*
X191574875Y-69117017D02*
X191622494Y-69212256D01*
X191622494Y-69212256D02*
X191717732Y-69259875D01*
X191717732Y-69259875D02*
X191860589Y-69259875D01*
X191860589Y-69259875D02*
X191955827Y-69212256D01*
X191955827Y-69212256D02*
X192003446Y-69164636D01*
X192241542Y-69355113D02*
X193003446Y-69355113D01*
X188336779Y-70869819D02*
X188336779Y-69869819D01*
X188336779Y-69869819D02*
X188670112Y-70584104D01*
X188670112Y-70584104D02*
X189003445Y-69869819D01*
X189003445Y-69869819D02*
X189003445Y-70869819D01*
X189908207Y-70869819D02*
X189908207Y-70346009D01*
X189908207Y-70346009D02*
X189860588Y-70250771D01*
X189860588Y-70250771D02*
X189765350Y-70203152D01*
X189765350Y-70203152D02*
X189574874Y-70203152D01*
X189574874Y-70203152D02*
X189479636Y-70250771D01*
X189908207Y-70822200D02*
X189812969Y-70869819D01*
X189812969Y-70869819D02*
X189574874Y-70869819D01*
X189574874Y-70869819D02*
X189479636Y-70822200D01*
X189479636Y-70822200D02*
X189432017Y-70726961D01*
X189432017Y-70726961D02*
X189432017Y-70631723D01*
X189432017Y-70631723D02*
X189479636Y-70536485D01*
X189479636Y-70536485D02*
X189574874Y-70488866D01*
X189574874Y-70488866D02*
X189812969Y-70488866D01*
X189812969Y-70488866D02*
X189908207Y-70441247D01*
X190812969Y-70869819D02*
X190812969Y-69869819D01*
X190812969Y-70822200D02*
X190717731Y-70869819D01*
X190717731Y-70869819D02*
X190527255Y-70869819D01*
X190527255Y-70869819D02*
X190432017Y-70822200D01*
X190432017Y-70822200D02*
X190384398Y-70774580D01*
X190384398Y-70774580D02*
X190336779Y-70679342D01*
X190336779Y-70679342D02*
X190336779Y-70393628D01*
X190336779Y-70393628D02*
X190384398Y-70298390D01*
X190384398Y-70298390D02*
X190432017Y-70250771D01*
X190432017Y-70250771D02*
X190527255Y-70203152D01*
X190527255Y-70203152D02*
X190717731Y-70203152D01*
X190717731Y-70203152D02*
X190812969Y-70250771D01*
X191670112Y-70822200D02*
X191574874Y-70869819D01*
X191574874Y-70869819D02*
X191384398Y-70869819D01*
X191384398Y-70869819D02*
X191289160Y-70822200D01*
X191289160Y-70822200D02*
X191241541Y-70726961D01*
X191241541Y-70726961D02*
X191241541Y-70346009D01*
X191241541Y-70346009D02*
X191289160Y-70250771D01*
X191289160Y-70250771D02*
X191384398Y-70203152D01*
X191384398Y-70203152D02*
X191574874Y-70203152D01*
X191574874Y-70203152D02*
X191670112Y-70250771D01*
X191670112Y-70250771D02*
X191717731Y-70346009D01*
X191717731Y-70346009D02*
X191717731Y-70441247D01*
X191717731Y-70441247D02*
X191241541Y-70536485D01*
X192908208Y-70869819D02*
X192908208Y-69869819D01*
X192908208Y-70250771D02*
X193003446Y-70203152D01*
X193003446Y-70203152D02*
X193193922Y-70203152D01*
X193193922Y-70203152D02*
X193289160Y-70250771D01*
X193289160Y-70250771D02*
X193336779Y-70298390D01*
X193336779Y-70298390D02*
X193384398Y-70393628D01*
X193384398Y-70393628D02*
X193384398Y-70679342D01*
X193384398Y-70679342D02*
X193336779Y-70774580D01*
X193336779Y-70774580D02*
X193289160Y-70822200D01*
X193289160Y-70822200D02*
X193193922Y-70869819D01*
X193193922Y-70869819D02*
X193003446Y-70869819D01*
X193003446Y-70869819D02*
X192908208Y-70822200D01*
X193717732Y-70203152D02*
X193955827Y-70869819D01*
X194193922Y-70203152D02*
X193955827Y-70869819D01*
X193955827Y-70869819D02*
X193860589Y-71107914D01*
X193860589Y-71107914D02*
X193812970Y-71155533D01*
X193812970Y-71155533D02*
X193717732Y-71203152D01*
X195336780Y-70869819D02*
X195336780Y-69869819D01*
X195908208Y-70869819D02*
X195479637Y-70298390D01*
X195908208Y-69869819D02*
X195336780Y-70441247D01*
X196765351Y-70869819D02*
X196765351Y-70346009D01*
X196765351Y-70346009D02*
X196717732Y-70250771D01*
X196717732Y-70250771D02*
X196622494Y-70203152D01*
X196622494Y-70203152D02*
X196432018Y-70203152D01*
X196432018Y-70203152D02*
X196336780Y-70250771D01*
X196765351Y-70822200D02*
X196670113Y-70869819D01*
X196670113Y-70869819D02*
X196432018Y-70869819D01*
X196432018Y-70869819D02*
X196336780Y-70822200D01*
X196336780Y-70822200D02*
X196289161Y-70726961D01*
X196289161Y-70726961D02*
X196289161Y-70631723D01*
X196289161Y-70631723D02*
X196336780Y-70536485D01*
X196336780Y-70536485D02*
X196432018Y-70488866D01*
X196432018Y-70488866D02*
X196670113Y-70488866D01*
X196670113Y-70488866D02*
X196765351Y-70441247D01*
X197241542Y-70869819D02*
X197241542Y-70203152D01*
X197241542Y-69869819D02*
X197193923Y-69917438D01*
X197193923Y-69917438D02*
X197241542Y-69965057D01*
X197241542Y-69965057D02*
X197289161Y-69917438D01*
X197289161Y-69917438D02*
X197241542Y-69869819D01*
X197241542Y-69869819D02*
X197241542Y-69965057D01*
X197717732Y-70869819D02*
X197717732Y-69869819D01*
X198146303Y-70869819D02*
X198146303Y-70346009D01*
X198146303Y-70346009D02*
X198098684Y-70250771D01*
X198098684Y-70250771D02*
X198003446Y-70203152D01*
X198003446Y-70203152D02*
X197860589Y-70203152D01*
X197860589Y-70203152D02*
X197765351Y-70250771D01*
X197765351Y-70250771D02*
X197717732Y-70298390D01*
X199051065Y-70869819D02*
X199051065Y-70346009D01*
X199051065Y-70346009D02*
X199003446Y-70250771D01*
X199003446Y-70250771D02*
X198908208Y-70203152D01*
X198908208Y-70203152D02*
X198717732Y-70203152D01*
X198717732Y-70203152D02*
X198622494Y-70250771D01*
X199051065Y-70822200D02*
X198955827Y-70869819D01*
X198955827Y-70869819D02*
X198717732Y-70869819D01*
X198717732Y-70869819D02*
X198622494Y-70822200D01*
X198622494Y-70822200D02*
X198574875Y-70726961D01*
X198574875Y-70726961D02*
X198574875Y-70631723D01*
X198574875Y-70631723D02*
X198622494Y-70536485D01*
X198622494Y-70536485D02*
X198717732Y-70488866D01*
X198717732Y-70488866D02*
X198955827Y-70488866D01*
X198955827Y-70488866D02*
X199051065Y-70441247D01*
X199527256Y-70203152D02*
X199527256Y-70869819D01*
X199527256Y-70298390D02*
X199574875Y-70250771D01*
X199574875Y-70250771D02*
X199670113Y-70203152D01*
X199670113Y-70203152D02*
X199812970Y-70203152D01*
X199812970Y-70203152D02*
X199908208Y-70250771D01*
X199908208Y-70250771D02*
X199955827Y-70346009D01*
X199955827Y-70346009D02*
X199955827Y-70869819D01*
X200860589Y-70203152D02*
X200860589Y-71012676D01*
X200860589Y-71012676D02*
X200812970Y-71107914D01*
X200812970Y-71107914D02*
X200765351Y-71155533D01*
X200765351Y-71155533D02*
X200670113Y-71203152D01*
X200670113Y-71203152D02*
X200527256Y-71203152D01*
X200527256Y-71203152D02*
X200432018Y-71155533D01*
X200860589Y-70822200D02*
X200765351Y-70869819D01*
X200765351Y-70869819D02*
X200574875Y-70869819D01*
X200574875Y-70869819D02*
X200479637Y-70822200D01*
X200479637Y-70822200D02*
X200432018Y-70774580D01*
X200432018Y-70774580D02*
X200384399Y-70679342D01*
X200384399Y-70679342D02*
X200384399Y-70393628D01*
X200384399Y-70393628D02*
X200432018Y-70298390D01*
X200432018Y-70298390D02*
X200479637Y-70250771D01*
X200479637Y-70250771D02*
X200574875Y-70203152D01*
X200574875Y-70203152D02*
X200765351Y-70203152D01*
X200765351Y-70203152D02*
X200860589Y-70250771D01*
X201622494Y-71250771D02*
X201574875Y-71203152D01*
X201574875Y-71203152D02*
X201479637Y-71060295D01*
X201479637Y-71060295D02*
X201432018Y-70965057D01*
X201432018Y-70965057D02*
X201384399Y-70822200D01*
X201384399Y-70822200D02*
X201336780Y-70584104D01*
X201336780Y-70584104D02*
X201336780Y-70393628D01*
X201336780Y-70393628D02*
X201384399Y-70155533D01*
X201384399Y-70155533D02*
X201432018Y-70012676D01*
X201432018Y-70012676D02*
X201479637Y-69917438D01*
X201479637Y-69917438D02*
X201574875Y-69774580D01*
X201574875Y-69774580D02*
X201622494Y-69726961D01*
X202432018Y-70203152D02*
X202432018Y-71012676D01*
X202432018Y-71012676D02*
X202384399Y-71107914D01*
X202384399Y-71107914D02*
X202336780Y-71155533D01*
X202336780Y-71155533D02*
X202241542Y-71203152D01*
X202241542Y-71203152D02*
X202098685Y-71203152D01*
X202098685Y-71203152D02*
X202003447Y-71155533D01*
X202432018Y-70822200D02*
X202336780Y-70869819D01*
X202336780Y-70869819D02*
X202146304Y-70869819D01*
X202146304Y-70869819D02*
X202051066Y-70822200D01*
X202051066Y-70822200D02*
X202003447Y-70774580D01*
X202003447Y-70774580D02*
X201955828Y-70679342D01*
X201955828Y-70679342D02*
X201955828Y-70393628D01*
X201955828Y-70393628D02*
X202003447Y-70298390D01*
X202003447Y-70298390D02*
X202051066Y-70250771D01*
X202051066Y-70250771D02*
X202146304Y-70203152D01*
X202146304Y-70203152D02*
X202336780Y-70203152D01*
X202336780Y-70203152D02*
X202432018Y-70250771D01*
X202908209Y-70203152D02*
X202908209Y-70869819D01*
X202908209Y-70298390D02*
X202955828Y-70250771D01*
X202955828Y-70250771D02*
X203051066Y-70203152D01*
X203051066Y-70203152D02*
X203193923Y-70203152D01*
X203193923Y-70203152D02*
X203289161Y-70250771D01*
X203289161Y-70250771D02*
X203336780Y-70346009D01*
X203336780Y-70346009D02*
X203336780Y-70869819D01*
X204241542Y-70869819D02*
X204241542Y-70346009D01*
X204241542Y-70346009D02*
X204193923Y-70250771D01*
X204193923Y-70250771D02*
X204098685Y-70203152D01*
X204098685Y-70203152D02*
X203908209Y-70203152D01*
X203908209Y-70203152D02*
X203812971Y-70250771D01*
X204241542Y-70822200D02*
X204146304Y-70869819D01*
X204146304Y-70869819D02*
X203908209Y-70869819D01*
X203908209Y-70869819D02*
X203812971Y-70822200D01*
X203812971Y-70822200D02*
X203765352Y-70726961D01*
X203765352Y-70726961D02*
X203765352Y-70631723D01*
X203765352Y-70631723D02*
X203812971Y-70536485D01*
X203812971Y-70536485D02*
X203908209Y-70488866D01*
X203908209Y-70488866D02*
X204146304Y-70488866D01*
X204146304Y-70488866D02*
X204241542Y-70441247D01*
X204717733Y-70869819D02*
X204717733Y-69869819D01*
X205146304Y-70869819D02*
X205146304Y-70346009D01*
X205146304Y-70346009D02*
X205098685Y-70250771D01*
X205098685Y-70250771D02*
X205003447Y-70203152D01*
X205003447Y-70203152D02*
X204860590Y-70203152D01*
X204860590Y-70203152D02*
X204765352Y-70250771D01*
X204765352Y-70250771D02*
X204717733Y-70298390D01*
X205622495Y-70869819D02*
X205622495Y-70203152D01*
X205622495Y-69869819D02*
X205574876Y-69917438D01*
X205574876Y-69917438D02*
X205622495Y-69965057D01*
X205622495Y-69965057D02*
X205670114Y-69917438D01*
X205670114Y-69917438D02*
X205622495Y-69869819D01*
X205622495Y-69869819D02*
X205622495Y-69965057D01*
X206527256Y-70869819D02*
X206527256Y-70346009D01*
X206527256Y-70346009D02*
X206479637Y-70250771D01*
X206479637Y-70250771D02*
X206384399Y-70203152D01*
X206384399Y-70203152D02*
X206193923Y-70203152D01*
X206193923Y-70203152D02*
X206098685Y-70250771D01*
X206527256Y-70822200D02*
X206432018Y-70869819D01*
X206432018Y-70869819D02*
X206193923Y-70869819D01*
X206193923Y-70869819D02*
X206098685Y-70822200D01*
X206098685Y-70822200D02*
X206051066Y-70726961D01*
X206051066Y-70726961D02*
X206051066Y-70631723D01*
X206051066Y-70631723D02*
X206098685Y-70536485D01*
X206098685Y-70536485D02*
X206193923Y-70488866D01*
X206193923Y-70488866D02*
X206432018Y-70488866D01*
X206432018Y-70488866D02*
X206527256Y-70441247D01*
X207003447Y-70869819D02*
X207003447Y-69869819D01*
X207098685Y-70488866D02*
X207384399Y-70869819D01*
X207384399Y-70203152D02*
X207003447Y-70584104D01*
X207765352Y-69965057D02*
X207812971Y-69917438D01*
X207812971Y-69917438D02*
X207908209Y-69869819D01*
X207908209Y-69869819D02*
X208146304Y-69869819D01*
X208146304Y-69869819D02*
X208241542Y-69917438D01*
X208241542Y-69917438D02*
X208289161Y-69965057D01*
X208289161Y-69965057D02*
X208336780Y-70060295D01*
X208336780Y-70060295D02*
X208336780Y-70155533D01*
X208336780Y-70155533D02*
X208289161Y-70298390D01*
X208289161Y-70298390D02*
X207717733Y-70869819D01*
X207717733Y-70869819D02*
X208336780Y-70869819D01*
X208670114Y-71250771D02*
X208717733Y-71203152D01*
X208717733Y-71203152D02*
X208812971Y-71060295D01*
X208812971Y-71060295D02*
X208860590Y-70965057D01*
X208860590Y-70965057D02*
X208908209Y-70822200D01*
X208908209Y-70822200D02*
X208955828Y-70584104D01*
X208955828Y-70584104D02*
X208955828Y-70393628D01*
X208955828Y-70393628D02*
X208908209Y-70155533D01*
X208908209Y-70155533D02*
X208860590Y-70012676D01*
X208860590Y-70012676D02*
X208812971Y-69917438D01*
X208812971Y-69917438D02*
X208717733Y-69774580D01*
X208717733Y-69774580D02*
X208670114Y-69726961D01*
D11*
%TO.C,D2*%
X98190000Y-71000000D03*
D12*
X105810000Y-71000000D03*
%TD*%
D11*
%TO.C,D10*%
X98000000Y-107000000D03*
D12*
X105620000Y-107000000D03*
%TD*%
D11*
%TO.C,D6*%
X98000000Y-89100000D03*
D12*
X105620000Y-89100000D03*
%TD*%
D13*
%TO.C,S1*%
X121000000Y-72036000D03*
D14*
X117190000Y-69496000D03*
X123540000Y-66956000D03*
%TD*%
D11*
%TO.C,D12*%
X98000000Y-116000000D03*
D12*
X105620000Y-116000000D03*
%TD*%
D11*
%TO.C,D11*%
X98000000Y-111500000D03*
D12*
X105620000Y-111500000D03*
%TD*%
D13*
%TO.C,S4*%
X139310000Y-72036000D03*
D14*
X135500000Y-69496000D03*
X141850000Y-66956000D03*
%TD*%
D13*
%TO.C,S8*%
X158000000Y-91500000D03*
D14*
X154190000Y-88960000D03*
X160540000Y-86420000D03*
%TD*%
D11*
%TO.C,D8*%
X98000000Y-98100000D03*
D12*
X105620000Y-98100000D03*
%TD*%
D11*
%TO.C,D1*%
X98190000Y-66900000D03*
D12*
X105810000Y-66900000D03*
%TD*%
D11*
%TO.C,D9*%
X98000000Y-102450000D03*
D12*
X105620000Y-102450000D03*
%TD*%
D13*
%TO.C,S7*%
X158000000Y-72000000D03*
D14*
X154190000Y-69460000D03*
X160540000Y-66920000D03*
%TD*%
D13*
%TO.C,S3*%
X121000000Y-110000000D03*
D14*
X117190000Y-107460000D03*
X123540000Y-104920000D03*
%TD*%
D13*
%TO.C,S2*%
X121000000Y-91500000D03*
D14*
X117190000Y-88960000D03*
X123540000Y-86420000D03*
%TD*%
D13*
%TO.C,S12*%
X177810000Y-110000000D03*
D14*
X174000000Y-107460000D03*
X180350000Y-104920000D03*
%TD*%
D11*
%TO.C,D4*%
X98190000Y-80100000D03*
D12*
X105810000Y-80100000D03*
%TD*%
D13*
%TO.C,S10*%
X177810000Y-71996000D03*
D14*
X174000000Y-69456000D03*
X180350000Y-66916000D03*
%TD*%
D11*
%TO.C,D7*%
X98000000Y-93600000D03*
D12*
X105620000Y-93600000D03*
%TD*%
D11*
%TO.C,D5*%
X98000000Y-84600000D03*
D12*
X105620000Y-84600000D03*
%TD*%
D13*
%TO.C,S6*%
X139310000Y-110000000D03*
D14*
X135500000Y-107460000D03*
X141850000Y-104920000D03*
%TD*%
D15*
%TO.C,U1*%
X207851500Y-82045000D03*
D16*
X207851500Y-82880000D03*
D15*
X205311500Y-82045000D03*
D16*
X205311500Y-82880000D03*
D15*
X202771500Y-82045000D03*
D16*
X202771500Y-82880000D03*
D15*
X200231500Y-82045000D03*
D16*
X200231500Y-82880000D03*
D15*
X197691500Y-82045000D03*
D16*
X197691500Y-82880000D03*
D15*
X195151500Y-82045000D03*
D16*
X195151500Y-82880000D03*
D15*
X192611500Y-82045000D03*
D16*
X192611500Y-82880000D03*
X192611500Y-98120000D03*
D17*
X192611500Y-98955000D03*
D16*
X195151500Y-98120000D03*
D17*
X195151500Y-98955000D03*
D16*
X197691500Y-98120000D03*
D17*
X197691500Y-98955000D03*
D16*
X200231500Y-98120000D03*
D17*
X200231500Y-98955000D03*
D16*
X202771500Y-98120000D03*
D17*
X202771500Y-98955000D03*
D16*
X205311500Y-98120000D03*
D17*
X205311500Y-98955000D03*
D16*
X207851500Y-98120000D03*
D17*
X207851500Y-98955000D03*
%TD*%
D11*
%TO.C,D3*%
X98190000Y-75550000D03*
D12*
X105810000Y-75550000D03*
%TD*%
D13*
%TO.C,S5*%
X139310000Y-91500000D03*
D14*
X135500000Y-88960000D03*
X141850000Y-86420000D03*
%TD*%
D13*
%TO.C,S11*%
X177810000Y-91000000D03*
D14*
X174000000Y-88460000D03*
X180350000Y-85920000D03*
%TD*%
D13*
%TO.C,S9*%
X158000000Y-110000000D03*
D14*
X154190000Y-107460000D03*
X160540000Y-104920000D03*
%TD*%
M02*
